solid STL generated by MeshLab
  facet normal  0.000000e+00  1.000000e+00  0.000000e+00
    outer loop
      vertex   9.659680e+01  5.918200e+01  1.174621e+02
      vertex   9.668092e+01  5.918200e+01  1.207283e+02
      vertex   1.600456e+02  5.918200e+01  1.174621e+02
    endloop
  endfacet
  facet normal -0.000000e+00  1.000000e+00  0.000000e+00
    outer loop
      vertex   9.659680e+01  5.918200e+01  1.174621e+02
      vertex   1.600456e+02  5.918200e+01  1.174621e+02
      vertex   9.668092e+01  5.918200e+01  1.141958e+02
    endloop
  endfacet
  facet normal  0.000000e+00  1.000000e+00 -0.000000e+00
    outer loop
      vertex   1.006755e+02  5.918200e+01  9.508039e+01
      vertex   9.868885e+01  5.918200e+01  1.013035e+02
      vertex   1.600456e+02  5.918200e+01  1.174621e+02
    endloop
  endfacet
  facet normal  0.000000e+00  1.000000e+00  0.000000e+00
    outer loop
      vertex   1.600456e+02  5.918200e+01  1.174621e+02
      vertex   9.868885e+01  5.918200e+01  1.013035e+02
      vertex   9.735261e+01  5.918200e+01  1.076979e+02
    endloop
  endfacet
  facet normal  0.000000e+00  1.000000e+00  0.000000e+00
    outer loop
      vertex   1.600456e+02  5.918200e+01  1.174621e+02
      vertex   9.735261e+01  5.918200e+01  1.076979e+02
      vertex   9.668092e+01  5.918200e+01  1.141958e+02
    endloop
  endfacet
  facet normal  0.000000e+00  1.000000e+00 -0.000000e+00
    outer loop
      vertex   1.102941e+02  5.918200e+01  7.808517e+01
      vertex   1.065090e+02  5.918200e+01  8.340936e+01
      vertex   1.600456e+02  5.918200e+01  1.174621e+02
    endloop
  endfacet
  facet normal  0.000000e+00  1.000000e+00  0.000000e+00
    outer loop
      vertex   1.600456e+02  5.918200e+01  1.174621e+02
      vertex   1.065090e+02  5.918200e+01  8.340936e+01
      vertex   1.032915e+02  5.918200e+01  8.909453e+01
    endloop
  endfacet
  facet normal  0.000000e+00  1.000000e+00  0.000000e+00
    outer loop
      vertex   1.600456e+02  5.918200e+01  1.174621e+02
      vertex   1.032915e+02  5.918200e+01  8.909453e+01
      vertex   1.006755e+02  5.918200e+01  9.508039e+01
    endloop
  endfacet
  facet normal  0.000000e+00  1.000000e+00 -0.000000e+00
    outer loop
      vertex   1.246257e+02  5.918200e+01  6.482009e+01
      vertex   1.194007e+02  5.918200e+01  6.874100e+01
      vertex   1.600456e+02  5.918200e+01  1.174621e+02
    endloop
  endfacet
  facet normal  0.000000e+00  1.000000e+00  0.000000e+00
    outer loop
      vertex   1.600456e+02  5.918200e+01  1.174621e+02
      vertex   1.194007e+02  5.918200e+01  6.874100e+01
      vertex   1.146066e+02  5.918200e+01  7.317838e+01
    endloop
  endfacet
  facet normal  0.000000e+00  1.000000e+00  0.000000e+00
    outer loop
      vertex   1.600456e+02  5.918200e+01  1.174621e+02
      vertex   1.146066e+02  5.918200e+01  7.317838e+01
      vertex   1.102941e+02  5.918200e+01  7.808517e+01
    endloop
  endfacet
  facet normal  0.000000e+00  1.000000e+00 -0.000000e+00
    outer loop
      vertex   1.423125e+02  5.918200e+01  5.654175e+01
      vertex   1.361426e+02  5.918200e+01  5.868796e+01
      vertex   1.600456e+02  5.918200e+01  1.174621e+02
    endloop
  endfacet
  facet normal  0.000000e+00  1.000000e+00  0.000000e+00
    outer loop
      vertex   1.600456e+02  5.918200e+01  1.174621e+02
      vertex   1.361426e+02  5.918200e+01  5.868796e+01
      vertex   1.302261e+02  5.918200e+01  6.145720e+01
    endloop
  endfacet
  facet normal  0.000000e+00  1.000000e+00  0.000000e+00
    outer loop
      vertex   1.600456e+02  5.918200e+01  1.174621e+02
      vertex   1.302261e+02  5.918200e+01  6.145720e+01
      vertex   1.246257e+02  5.918200e+01  6.482009e+01
    endloop
  endfacet
  facet normal  0.000000e+00  1.000000e+00  0.000000e+00
    outer loop
      vertex   1.616792e+02  5.918200e+01  5.403434e+01
      vertex   1.551489e+02  5.918200e+01  5.420254e+01
      vertex   1.600456e+02  5.918200e+01  1.174621e+02
    endloop
  endfacet
  facet normal  0.000000e+00  1.000000e+00  0.000000e+00
    outer loop
      vertex   1.600456e+02  5.918200e+01  1.174621e+02
      vertex   1.551489e+02  5.918200e+01  5.420254e+01
      vertex   1.486704e+02  5.918200e+01  5.504131e+01
    endloop
  endfacet
  facet normal  0.000000e+00  1.000000e+00  0.000000e+00
    outer loop
      vertex   1.600456e+02  5.918200e+01  1.174621e+02
      vertex   1.486704e+02  5.918200e+01  5.504131e+01
      vertex   1.423125e+02  5.918200e+01  5.654175e+01
    endloop
  endfacet
  facet normal  0.000000e+00  1.000000e+00  0.000000e+00
    outer loop
      vertex   1.808912e+02  5.918200e+01  5.753540e+01
      vertex   1.746190e+02  5.918200e+01  5.570965e+01
      vertex   1.600456e+02  5.918200e+01  1.174621e+02
    endloop
  endfacet
  facet normal  0.000000e+00  1.000000e+00  0.000000e+00
    outer loop
      vertex   1.600456e+02  5.918200e+01  1.174621e+02
      vertex   1.746190e+02  5.918200e+01  5.570965e+01
      vertex   1.681923e+02  5.918200e+01  5.453849e+01
    endloop
  endfacet
  facet normal  0.000000e+00  1.000000e+00  0.000000e+00
    outer loop
      vertex   1.600456e+02  5.918200e+01  1.174621e+02
      vertex   1.681923e+02  5.918200e+01  5.453849e+01
      vertex   1.616792e+02  5.918200e+01  5.403434e+01
    endloop
  endfacet
  facet normal  0.000000e+00  1.000000e+00  0.000000e+00
    outer loop
      vertex   1.981284e+02  5.918200e+01  6.671326e+01
      vertex   1.927085e+02  5.918200e+01  6.306652e+01
      vertex   1.600456e+02  5.918200e+01  1.174621e+02
    endloop
  endfacet
  facet normal  0.000000e+00  1.000000e+00  0.000000e+00
    outer loop
      vertex   1.600456e+02  5.918200e+01  1.174621e+02
      vertex   1.927085e+02  5.918200e+01  6.306652e+01
      vertex   1.869424e+02  5.918200e+01  5.999638e+01
    endloop
  endfacet
  facet normal  0.000000e+00  1.000000e+00  0.000000e+00
    outer loop
      vertex   1.600456e+02  5.918200e+01  1.174621e+02
      vertex   1.869424e+02  5.918200e+01  5.999638e+01
      vertex   1.808912e+02  5.918200e+01  5.753540e+01
    endloop
  endfacet
  facet normal  0.000000e+00  1.000000e+00  0.000000e+00
    outer loop
      vertex   2.117581e+02  5.918200e+01  8.069852e+01
      vertex   2.077040e+02  5.918200e+01  7.557624e+01
      vertex   1.600456e+02  5.918200e+01  1.174621e+02
    endloop
  endfacet
  facet normal  0.000000e+00  1.000000e+00  0.000000e+00
    outer loop
      vertex   1.600456e+02  5.918200e+01  1.174621e+02
      vertex   2.077040e+02  5.918200e+01  7.557624e+01
      vertex   2.031446e+02  5.918200e+01  7.089796e+01
    endloop
  endfacet
  facet normal  0.000000e+00  1.000000e+00  0.000000e+00
    outer loop
      vertex   1.600456e+02  5.918200e+01  1.174621e+02
      vertex   2.031446e+02  5.918200e+01  7.089796e+01
      vertex   1.981284e+02  5.918200e+01  6.671326e+01
    endloop
  endfacet
  facet normal  0.000000e+00  1.000000e+00  0.000000e+00
    outer loop
      vertex   2.204891e+02  5.918200e+01  9.816637e+01
      vertex   2.181847e+02  5.918200e+01  9.205377e+01
      vertex   1.600456e+02  5.918200e+01  1.174621e+02
    endloop
  endfacet
  facet normal  0.000000e+00  1.000000e+00  0.000000e+00
    outer loop
      vertex   1.600456e+02  5.918200e+01  1.174621e+02
      vertex   2.181847e+02  5.918200e+01  9.205377e+01
      vertex   2.152641e+02  5.918200e+01  8.621051e+01
    endloop
  endfacet
  facet normal  0.000000e+00  1.000000e+00  0.000000e+00
    outer loop
      vertex   1.600456e+02  5.918200e+01  1.174621e+02
      vertex   2.152641e+02  5.918200e+01  8.621051e+01
      vertex   2.117581e+02  5.918200e+01  8.069852e+01
    endloop
  endfacet
  facet normal  0.000000e+00  1.000000e+00  0.000000e+00
    outer loop
      vertex   2.234943e+02  5.918200e+01  1.174621e+02
      vertex   2.231581e+02  5.918200e+01  1.109382e+02
      vertex   1.600456e+02  5.918200e+01  1.174621e+02
    endloop
  endfacet
  facet normal  0.000000e+00  1.000000e+00  0.000000e+00
    outer loop
      vertex   1.600456e+02  5.918200e+01  1.174621e+02
      vertex   2.231581e+02  5.918200e+01  1.109382e+02
      vertex   2.221528e+02  5.918200e+01  1.044835e+02
    endloop
  endfacet
  facet normal  0.000000e+00  1.000000e+00  0.000000e+00
    outer loop
      vertex   1.600456e+02  5.918200e+01  1.174621e+02
      vertex   2.221528e+02  5.918200e+01  1.044835e+02
      vertex   2.204891e+02  5.918200e+01  9.816637e+01
    endloop
  endfacet
  facet normal  0.000000e+00  1.000000e+00  0.000000e+00
    outer loop
      vertex   2.204891e+02  5.918200e+01  1.367578e+02
      vertex   2.221528e+02  5.918200e+01  1.304407e+02
      vertex   1.600456e+02  5.918200e+01  1.174621e+02
    endloop
  endfacet
  facet normal  0.000000e+00  1.000000e+00  0.000000e+00
    outer loop
      vertex   1.600456e+02  5.918200e+01  1.174621e+02
      vertex   2.221528e+02  5.918200e+01  1.304407e+02
      vertex   2.231581e+02  5.918200e+01  1.239859e+02
    endloop
  endfacet
  facet normal  0.000000e+00  1.000000e+00  0.000000e+00
    outer loop
      vertex   1.600456e+02  5.918200e+01  1.174621e+02
      vertex   2.231581e+02  5.918200e+01  1.239859e+02
      vertex   2.234943e+02  5.918200e+01  1.174621e+02
    endloop
  endfacet
  facet normal  0.000000e+00  1.000000e+00  0.000000e+00
    outer loop
      vertex   2.117581e+02  5.918200e+01  1.542256e+02
      vertex   2.152641e+02  5.918200e+01  1.487136e+02
      vertex   1.600456e+02  5.918200e+01  1.174621e+02
    endloop
  endfacet
  facet normal  0.000000e+00  1.000000e+00  0.000000e+00
    outer loop
      vertex   1.600456e+02  5.918200e+01  1.174621e+02
      vertex   2.152641e+02  5.918200e+01  1.487136e+02
      vertex   2.181847e+02  5.918200e+01  1.428704e+02
    endloop
  endfacet
  facet normal  0.000000e+00  1.000000e+00  0.000000e+00
    outer loop
      vertex   1.600456e+02  5.918200e+01  1.174621e+02
      vertex   2.181847e+02  5.918200e+01  1.428704e+02
      vertex   2.204891e+02  5.918200e+01  1.367578e+02
    endloop
  endfacet
  facet normal  0.000000e+00  1.000000e+00  0.000000e+00
    outer loop
      vertex   1.981284e+02  5.918200e+01  1.682109e+02
      vertex   2.031446e+02  5.918200e+01  1.640262e+02
      vertex   1.600456e+02  5.918200e+01  1.174621e+02
    endloop
  endfacet
  facet normal  0.000000e+00  1.000000e+00  0.000000e+00
    outer loop
      vertex   1.600456e+02  5.918200e+01  1.174621e+02
      vertex   2.031446e+02  5.918200e+01  1.640262e+02
      vertex   2.077040e+02  5.918200e+01  1.593479e+02
    endloop
  endfacet
  facet normal  0.000000e+00  1.000000e+00  0.000000e+00
    outer loop
      vertex   1.600456e+02  5.918200e+01  1.174621e+02
      vertex   2.077040e+02  5.918200e+01  1.593479e+02
      vertex   2.117581e+02  5.918200e+01  1.542256e+02
    endloop
  endfacet
  facet normal  0.000000e+00  1.000000e+00  0.000000e+00
    outer loop
      vertex   1.808912e+02  5.918200e+01  1.773887e+02
      vertex   1.869424e+02  5.918200e+01  1.749278e+02
      vertex   1.600456e+02  5.918200e+01  1.174621e+02
    endloop
  endfacet
  facet normal  0.000000e+00  1.000000e+00  0.000000e+00
    outer loop
      vertex   1.600456e+02  5.918200e+01  1.174621e+02
      vertex   1.869424e+02  5.918200e+01  1.749278e+02
      vertex   1.927085e+02  5.918200e+01  1.718576e+02
    endloop
  endfacet
  facet normal  0.000000e+00  1.000000e+00  0.000000e+00
    outer loop
      vertex   1.600456e+02  5.918200e+01  1.174621e+02
      vertex   1.927085e+02  5.918200e+01  1.718576e+02
      vertex   1.981284e+02  5.918200e+01  1.682109e+02
    endloop
  endfacet
  facet normal  0.000000e+00  1.000000e+00  0.000000e+00
    outer loop
      vertex   1.616792e+02  5.918200e+01  1.808898e+02
      vertex   1.681923e+02  5.918200e+01  1.803857e+02
      vertex   1.600456e+02  5.918200e+01  1.174621e+02
    endloop
  endfacet
  facet normal  0.000000e+00  1.000000e+00  0.000000e+00
    outer loop
      vertex   1.600456e+02  5.918200e+01  1.174621e+02
      vertex   1.681923e+02  5.918200e+01  1.803857e+02
      vertex   1.746190e+02  5.918200e+01  1.792145e+02
    endloop
  endfacet
  facet normal  0.000000e+00  1.000000e+00  0.000000e+00
    outer loop
      vertex   1.600456e+02  5.918200e+01  1.174621e+02
      vertex   1.746190e+02  5.918200e+01  1.792145e+02
      vertex   1.808912e+02  5.918200e+01  1.773887e+02
    endloop
  endfacet
  facet normal -0.000000e+00  1.000000e+00  0.000000e+00
    outer loop
      vertex   1.423125e+02  5.918200e+01  1.783824e+02
      vertex   1.486704e+02  5.918200e+01  1.798828e+02
      vertex   1.600456e+02  5.918200e+01  1.174621e+02
    endloop
  endfacet
  facet normal  0.000000e+00  1.000000e+00  0.000000e+00
    outer loop
      vertex   1.600456e+02  5.918200e+01  1.174621e+02
      vertex   1.486704e+02  5.918200e+01  1.798828e+02
      vertex   1.551489e+02  5.918200e+01  1.807216e+02
    endloop
  endfacet
  facet normal  0.000000e+00  1.000000e+00 -0.000000e+00
    outer loop
      vertex   1.600456e+02  5.918200e+01  1.174621e+02
      vertex   1.551489e+02  5.918200e+01  1.807216e+02
      vertex   1.616792e+02  5.918200e+01  1.808898e+02
    endloop
  endfacet
  facet normal -0.000000e+00  1.000000e+00  0.000000e+00
    outer loop
      vertex   1.246257e+02  5.918200e+01  1.701041e+02
      vertex   1.302261e+02  5.918200e+01  1.734670e+02
      vertex   1.600456e+02  5.918200e+01  1.174621e+02
    endloop
  endfacet
  facet normal  0.000000e+00  1.000000e+00  0.000000e+00
    outer loop
      vertex   1.600456e+02  5.918200e+01  1.174621e+02
      vertex   1.302261e+02  5.918200e+01  1.734670e+02
      vertex   1.361426e+02  5.918200e+01  1.762362e+02
    endloop
  endfacet
  facet normal  0.000000e+00  1.000000e+00  0.000000e+00
    outer loop
      vertex   1.600456e+02  5.918200e+01  1.174621e+02
      vertex   1.361426e+02  5.918200e+01  1.762362e+02
      vertex   1.423125e+02  5.918200e+01  1.783824e+02
    endloop
  endfacet
  facet normal -0.000000e+00  1.000000e+00  0.000000e+00
    outer loop
      vertex   1.102941e+02  5.918200e+01  1.568390e+02
      vertex   1.146066e+02  5.918200e+01  1.617458e+02
      vertex   1.600456e+02  5.918200e+01  1.174621e+02
    endloop
  endfacet
  facet normal  0.000000e+00  1.000000e+00  0.000000e+00
    outer loop
      vertex   1.600456e+02  5.918200e+01  1.174621e+02
      vertex   1.146066e+02  5.918200e+01  1.617458e+02
      vertex   1.194007e+02  5.918200e+01  1.661832e+02
    endloop
  endfacet
  facet normal  0.000000e+00  1.000000e+00  0.000000e+00
    outer loop
      vertex   1.600456e+02  5.918200e+01  1.174621e+02
      vertex   1.194007e+02  5.918200e+01  1.661832e+02
      vertex   1.246257e+02  5.918200e+01  1.701041e+02
    endloop
  endfacet
  facet normal -0.000000e+00  1.000000e+00  0.000000e+00
    outer loop
      vertex   1.006755e+02  5.918200e+01  1.398438e+02
      vertex   1.032915e+02  5.918200e+01  1.458296e+02
      vertex   1.600456e+02  5.918200e+01  1.174621e+02
    endloop
  endfacet
  facet normal  0.000000e+00  1.000000e+00  0.000000e+00
    outer loop
      vertex   1.600456e+02  5.918200e+01  1.174621e+02
      vertex   1.032915e+02  5.918200e+01  1.458296e+02
      vertex   1.065090e+02  5.918200e+01  1.515148e+02
    endloop
  endfacet
  facet normal  0.000000e+00  1.000000e+00  0.000000e+00
    outer loop
      vertex   1.600456e+02  5.918200e+01  1.174621e+02
      vertex   1.065090e+02  5.918200e+01  1.515148e+02
      vertex   1.102941e+02  5.918200e+01  1.568390e+02
    endloop
  endfacet
  facet normal -0.000000e+00  1.000000e+00  0.000000e+00
    outer loop
      vertex   9.668092e+01  5.918200e+01  1.207283e+02
      vertex   9.735261e+01  5.918200e+01  1.272262e+02
      vertex   1.600456e+02  5.918200e+01  1.174621e+02
    endloop
  endfacet
  facet normal  0.000000e+00  1.000000e+00  0.000000e+00
    outer loop
      vertex   1.600456e+02  5.918200e+01  1.174621e+02
      vertex   9.735261e+01  5.918200e+01  1.272262e+02
      vertex   9.868885e+01  5.918200e+01  1.336207e+02
    endloop
  endfacet
  facet normal  0.000000e+00  1.000000e+00  0.000000e+00
    outer loop
      vertex   1.600456e+02  5.918200e+01  1.174621e+02
      vertex   9.868885e+01  5.918200e+01  1.336207e+02
      vertex   1.006755e+02  5.918200e+01  1.398438e+02
    endloop
  endfacet
  facet normal -8.658099e-01  4.998760e-01  2.229909e-02
    outer loop
      vertex   9.668092e+01  5.918200e+01  1.207283e+02
      vertex   9.659680e+01  5.918200e+01  1.174621e+02
      vertex   9.337057e+01  5.359400e+01  1.174621e+02
    endloop
  endfacet
  facet normal -8.658099e-01  4.998760e-01 -2.229904e-02
    outer loop
      vertex   9.337057e+01  5.359400e+01  1.174621e+02
      vertex   9.659680e+01  5.918200e+01  1.174621e+02
      vertex   9.345897e+01  5.359400e+01  1.140297e+02
    endloop
  endfacet
  facet normal -8.658101e-01  4.998757e-01 -2.229847e-02
    outer loop
      vertex   9.659680e+01  5.918200e+01  1.174621e+02
      vertex   9.668092e+01  5.918200e+01  1.141958e+02
      vertex   9.345897e+01  5.359400e+01  1.140297e+02
    endloop
  endfacet
  facet normal -8.617207e-01  4.995027e-01 -8.907557e-02
    outer loop
      vertex   9.345897e+01  5.359400e+01  1.140297e+02
      vertex   9.668092e+01  5.918200e+01  1.141958e+02
      vertex   9.735261e+01  5.918200e+01  1.076979e+02
    endloop
  endfacet
  facet normal -8.617205e-01  4.995032e-01 -8.907504e-02
    outer loop
      vertex   9.345897e+01  5.359400e+01  1.140297e+02
      vertex   9.735261e+01  5.918200e+01  1.076979e+02
      vertex   9.416480e+01  5.359400e+01  1.072014e+02
    endloop
  endfacet
  facet normal -8.479944e-01  4.995033e-01 -1.772060e-01
    outer loop
      vertex   9.416480e+01  5.359400e+01  1.072014e+02
      vertex   9.735261e+01  5.918200e+01  1.076979e+02
      vertex   9.868885e+01  5.918200e+01  1.013035e+02
    endloop
  endfacet
  facet normal -8.479949e-01  4.995020e-01 -1.772076e-01
    outer loop
      vertex   9.416480e+01  5.359400e+01  1.072014e+02
      vertex   9.868885e+01  5.918200e+01  1.013035e+02
      vertex   9.556899e+01  5.359400e+01  1.004819e+02
    endloop
  endfacet
  facet normal -8.252799e-01  4.995015e-01 -2.634602e-01
    outer loop
      vertex   9.556899e+01  5.359400e+01  1.004819e+02
      vertex   9.868885e+01  5.918200e+01  1.013035e+02
      vertex   1.006755e+02  5.918200e+01  9.508039e+01
    endloop
  endfacet
  facet normal -8.252794e-01  4.995040e-01 -2.634572e-01
    outer loop
      vertex   9.556899e+01  5.359400e+01  1.004819e+02
      vertex   1.006755e+02  5.918200e+01  9.508039e+01
      vertex   9.765665e+01  5.359400e+01  9.394233e+01
    endloop
  endfacet
  facet normal -7.938149e-01  4.995039e-01 -3.469203e-01
    outer loop
      vertex   9.765665e+01  5.359400e+01  9.394233e+01
      vertex   1.006755e+02  5.918200e+01  9.508039e+01
      vertex   1.032915e+02  5.918200e+01  8.909453e+01
    endloop
  endfacet
  facet normal -7.938144e-01  4.995102e-01 -3.469126e-01
    outer loop
      vertex   9.765665e+01  5.359400e+01  9.394233e+01
      vertex   1.032915e+02  5.918200e+01  8.909453e+01
      vertex   1.004056e+02  5.359400e+01  8.765210e+01
    endloop
  endfacet
  facet normal -7.539397e-01  4.995101e-01 -4.266904e-01
    outer loop
      vertex   1.004056e+02  5.359400e+01  8.765210e+01
      vertex   1.032915e+02  5.918200e+01  8.909453e+01
      vertex   1.065090e+02  5.918200e+01  8.340936e+01
    endloop
  endfacet
  facet normal -7.539392e-01  4.995016e-01 -4.267010e-01
    outer loop
      vertex   1.004056e+02  5.359400e+01  8.765210e+01
      vertex   1.065090e+02  5.918200e+01  8.340936e+01
      vertex   1.037868e+02  5.359400e+01  8.167786e+01
    endloop
  endfacet
  facet normal -7.060690e-01  4.995016e-01 -5.019609e-01
    outer loop
      vertex   1.037868e+02  5.359400e+01  8.167786e+01
      vertex   1.065090e+02  5.918200e+01  8.340936e+01
      vertex   1.102941e+02  5.918200e+01  7.808517e+01
    endloop
  endfacet
  facet normal -7.060683e-01  4.994977e-01 -5.019658e-01
    outer loop
      vertex   1.037868e+02  5.359400e+01  8.167786e+01
      vertex   1.102941e+02  5.918200e+01  7.808517e+01
      vertex   1.077644e+02  5.359400e+01  7.608294e+01
    endloop
  endfacet
  facet normal -6.507142e-01  4.994978e-01 -5.719030e-01
    outer loop
      vertex   1.077644e+02  5.359400e+01  7.608294e+01
      vertex   1.102941e+02  5.918200e+01  7.808517e+01
      vertex   1.146066e+02  5.918200e+01  7.317838e+01
    endloop
  endfacet
  facet normal -6.507163e-01  4.995051e-01 -5.718942e-01
    outer loop
      vertex   1.077644e+02  5.359400e+01  7.608294e+01
      vertex   1.146066e+02  5.918200e+01  7.317838e+01
      vertex   1.122961e+02  5.359400e+01  7.092665e+01
    endloop
  endfacet
  facet normal -5.884644e-01  4.995050e-01 -6.357707e-01
    outer loop
      vertex   1.122961e+02  5.359400e+01  7.092665e+01
      vertex   1.146066e+02  5.918200e+01  7.317838e+01
      vertex   1.194007e+02  5.918200e+01  6.874100e+01
    endloop
  endfacet
  facet normal -5.884629e-01  4.995017e-01 -6.357748e-01
    outer loop
      vertex   1.122961e+02  5.359400e+01  7.092665e+01
      vertex   1.194007e+02  5.918200e+01  6.874100e+01
      vertex   1.173340e+02  5.359400e+01  6.626365e+01
    endloop
  endfacet
  facet normal -5.199709e-01  4.995015e-01 -6.929131e-01
    outer loop
      vertex   1.173340e+02  5.359400e+01  6.626365e+01
      vertex   1.194007e+02  5.918200e+01  6.874100e+01
      vertex   1.246257e+02  5.918200e+01  6.482009e+01
    endloop
  endfacet
  facet normal -5.199708e-01  4.995012e-01 -6.929134e-01
    outer loop
      vertex   1.173340e+02  5.359400e+01  6.626365e+01
      vertex   1.246257e+02  5.918200e+01  6.482009e+01
      vertex   1.228247e+02  5.359400e+01  6.214336e+01
    endloop
  endfacet
  facet normal -4.459728e-01  4.995013e-01 -7.427023e-01
    outer loop
      vertex   1.228247e+02  5.359400e+01  6.214336e+01
      vertex   1.246257e+02  5.918200e+01  6.482009e+01
      vertex   1.302261e+02  5.918200e+01  6.145720e+01
    endloop
  endfacet
  facet normal -4.459718e-01  4.994998e-01 -7.427039e-01
    outer loop
      vertex   1.228247e+02  5.359400e+01  6.214336e+01
      vertex   1.302261e+02  5.918200e+01  6.145720e+01
      vertex   1.287099e+02  5.359400e+01  5.860947e+01
    endloop
  endfacet
  facet normal -3.672453e-01  4.995005e-01 -7.846211e-01
    outer loop
      vertex   1.287099e+02  5.359400e+01  5.860947e+01
      vertex   1.302261e+02  5.918200e+01  6.145720e+01
      vertex   1.361426e+02  5.918200e+01  5.868796e+01
    endloop
  endfacet
  facet normal -3.672459e-01  4.995012e-01 -7.846203e-01
    outer loop
      vertex   1.287099e+02  5.359400e+01  5.860947e+01
      vertex   1.361426e+02  5.918200e+01  5.868796e+01
      vertex   1.349272e+02  5.359400e+01  5.569943e+01
    endloop
  endfacet
  facet normal -2.846201e-01  4.995015e-01 -8.182235e-01
    outer loop
      vertex   1.349272e+02  5.359400e+01  5.569943e+01
      vertex   1.361426e+02  5.918200e+01  5.868796e+01
      vertex   1.423125e+02  5.918200e+01  5.654175e+01
    endloop
  endfacet
  facet normal -2.846186e-01  4.994998e-01 -8.182251e-01
    outer loop
      vertex   1.349272e+02  5.359400e+01  5.569943e+01
      vertex   1.423125e+02  5.918200e+01  5.654175e+01
      vertex   1.414109e+02  5.359400e+01  5.344408e+01
    endloop
  endfacet
  facet normal -1.989812e-01  4.995008e-01 -8.431522e-01
    outer loop
      vertex   1.414109e+02  5.359400e+01  5.344408e+01
      vertex   1.423125e+02  5.918200e+01  5.654175e+01
      vertex   1.486704e+02  5.918200e+01  5.504131e+01
    endloop
  endfacet
  facet normal -1.989825e-01  4.995022e-01 -8.431509e-01
    outer loop
      vertex   1.414109e+02  5.359400e+01  5.344408e+01
      vertex   1.486704e+02  5.918200e+01  5.504131e+01
      vertex   1.480920e+02  5.359400e+01  5.186735e+01
    endloop
  endfacet
  facet normal -1.112327e-01  4.995022e-01 -8.591419e-01
    outer loop
      vertex   1.480920e+02  5.359400e+01  5.186735e+01
      vertex   1.486704e+02  5.918200e+01  5.504131e+01
      vertex   1.551489e+02  5.918200e+01  5.420254e+01
    endloop
  endfacet
  facet normal -1.112331e-01  4.995027e-01 -8.591416e-01
    outer loop
      vertex   1.480920e+02  5.359400e+01  5.186735e+01
      vertex   1.551489e+02  5.918200e+01  5.420254e+01
      vertex   1.548999e+02  5.359400e+01  5.098593e+01
    endloop
  endfacet
  facet normal -2.230630e-02  4.995026e-01 -8.660251e-01
    outer loop
      vertex   1.548999e+02  5.359400e+01  5.098593e+01
      vertex   1.551489e+02  5.918200e+01  5.420254e+01
      vertex   1.616792e+02  5.918200e+01  5.403434e+01
    endloop
  endfacet
  facet normal -2.230564e-02  4.995021e-01 -8.660255e-01
    outer loop
      vertex   1.548999e+02  5.359400e+01  5.098593e+01
      vertex   1.616792e+02  5.918200e+01  5.403434e+01
      vertex   1.617623e+02  5.359400e+01  5.080918e+01
    endloop
  endfacet
  facet normal  6.685735e-02  4.995025e-01 -8.637288e-01
    outer loop
      vertex   1.617623e+02  5.359400e+01  5.080918e+01
      vertex   1.616792e+02  5.918200e+01  5.403434e+01
      vertex   1.681923e+02  5.918200e+01  5.453849e+01
    endloop
  endfacet
  facet normal  6.685862e-02  4.995013e-01 -8.637293e-01
    outer loop
      vertex   1.617623e+02  5.359400e+01  5.080918e+01
      vertex   1.681923e+02  5.918200e+01  5.453849e+01
      vertex   1.686065e+02  5.359400e+01  5.133897e+01
    endloop
  endfacet
  facet normal  1.553133e-01  4.995008e-01 -8.522773e-01
    outer loop
      vertex   1.686065e+02  5.359400e+01  5.133897e+01
      vertex   1.681923e+02  5.918200e+01  5.453849e+01
      vertex   1.746190e+02  5.918200e+01  5.570965e+01
    endloop
  endfacet
  facet normal  1.553120e-01  4.995019e-01 -8.522769e-01
    outer loop
      vertex   1.686065e+02  5.359400e+01  5.133897e+01
      vertex   1.746190e+02  5.918200e+01  5.570965e+01
      vertex   1.753600e+02  5.359400e+01  5.256967e+01
    endloop
  endfacet
  facet normal  2.421228e-01  4.995016e-01 -8.317901e-01
    outer loop
      vertex   1.753600e+02  5.359400e+01  5.256967e+01
      vertex   1.746190e+02  5.918200e+01  5.570965e+01
      vertex   1.808912e+02  5.918200e+01  5.753540e+01
    endloop
  endfacet
  facet normal  2.421239e-01  4.995007e-01 -8.317903e-01
    outer loop
      vertex   1.753600e+02  5.359400e+01  5.256967e+01
      vertex   1.808912e+02  5.918200e+01  5.753540e+01
      vertex   1.819511e+02  5.359400e+01  5.448826e+01
    endloop
  endfacet
  facet normal  3.263660e-01  4.994998e-01 -8.024868e-01
    outer loop
      vertex   1.819511e+02  5.359400e+01  5.448826e+01
      vertex   1.808912e+02  5.918200e+01  5.753540e+01
      vertex   1.869424e+02  5.918200e+01  5.999638e+01
    endloop
  endfacet
  facet normal  3.263601e-01  4.995046e-01 -8.024864e-01
    outer loop
      vertex   1.819511e+02  5.359400e+01  5.448826e+01
      vertex   1.869424e+02  5.918200e+01  5.999638e+01
      vertex   1.883101e+02  5.359400e+01  5.707438e+01
    endloop
  endfacet
  facet normal  4.071479e-01  4.995053e-01 -7.646731e-01
    outer loop
      vertex   1.883101e+02  5.359400e+01  5.707438e+01
      vertex   1.869424e+02  5.918200e+01  5.999638e+01
      vertex   1.927085e+02  5.918200e+01  6.306652e+01
    endloop
  endfacet
  facet normal  4.071465e-01  4.995064e-01 -7.646732e-01
    outer loop
      vertex   1.883101e+02  5.359400e+01  5.707438e+01
      vertex   1.927085e+02  5.918200e+01  6.306652e+01
      vertex   1.943694e+02  5.359400e+01  6.030062e+01
    endloop
  endfacet
  facet normal  4.836103e-01  4.995071e-01 -7.187585e-01
    outer loop
      vertex   1.943694e+02  5.359400e+01  6.030062e+01
      vertex   1.927085e+02  5.918200e+01  6.306652e+01
      vertex   1.981284e+02  5.918200e+01  6.671326e+01
    endloop
  endfacet
  facet normal  4.836189e-01  4.995001e-01 -7.187575e-01
    outer loop
      vertex   1.943694e+02  5.359400e+01  6.030062e+01
      vertex   1.981284e+02  5.918200e+01  6.671326e+01
      vertex   2.000648e+02  5.359400e+01  6.413280e+01
    endloop
  endfacet
  facet normal  5.549552e-01  4.994997e-01 -6.652254e-01
    outer loop
      vertex   2.000648e+02  5.359400e+01  6.413280e+01
      vertex   1.981284e+02  5.918200e+01  6.671326e+01
      vertex   2.031446e+02  5.918200e+01  7.089796e+01
    endloop
  endfacet
  facet normal  5.549514e-01  4.995027e-01 -6.652262e-01
    outer loop
      vertex   2.000648e+02  5.359400e+01  6.413280e+01
      vertex   2.031446e+02  5.918200e+01  7.089796e+01
      vertex   2.053361e+02  5.359400e+01  6.853027e+01
    endloop
  endfacet
  facet normal  6.204082e-01  4.995030e-01 -6.046408e-01
    outer loop
      vertex   2.053361e+02  5.359400e+01  6.853027e+01
      vertex   2.031446e+02  5.918200e+01  7.089796e+01
      vertex   2.077040e+02  5.918200e+01  7.557624e+01
    endloop
  endfacet
  facet normal  6.204094e-01  4.995019e-01 -6.046404e-01
    outer loop
      vertex   2.053361e+02  5.359400e+01  6.853027e+01
      vertex   2.077040e+02  5.918200e+01  7.557624e+01
      vertex   2.101273e+02  5.359400e+01  7.344643e+01
    endloop
  endfacet
  facet normal  6.792954e-01  4.995017e-01 -5.376392e-01
    outer loop
      vertex   2.101273e+02  5.359400e+01  7.344643e+01
      vertex   2.077040e+02  5.918200e+01  7.557624e+01
      vertex   2.117581e+02  5.918200e+01  8.069852e+01
    endloop
  endfacet
  facet normal  6.792912e-01  4.995053e-01 -5.376410e-01
    outer loop
      vertex   2.101273e+02  5.359400e+01  7.344643e+01
      vertex   2.117581e+02  5.918200e+01  8.069852e+01
      vertex   2.143876e+02  5.359400e+01  7.882917e+01
    endloop
  endfacet
  facet normal  7.309712e-01  4.995056e-01 -4.649465e-01
    outer loop
      vertex   2.143876e+02  5.359400e+01  7.882917e+01
      vertex   2.117581e+02  5.918200e+01  8.069852e+01
      vertex   2.152641e+02  5.918200e+01  8.621051e+01
    endloop
  endfacet
  facet normal  7.309790e-01  4.994983e-01 -4.649420e-01
    outer loop
      vertex   2.143876e+02  5.359400e+01  7.882917e+01
      vertex   2.152641e+02  5.918200e+01  8.621051e+01
      vertex   2.180718e+02  5.359400e+01  8.462143e+01
    endloop
  endfacet
  facet normal  7.749109e-01  4.994977e-01 -3.873179e-01
    outer loop
      vertex   2.180718e+02  5.359400e+01  8.462143e+01
      vertex   2.152641e+02  5.918200e+01  8.621051e+01
      vertex   2.181847e+02  5.918200e+01  9.205377e+01
    endloop
  endfacet
  facet normal  7.748992e-01  4.995093e-01 -3.873264e-01
    outer loop
      vertex   2.180718e+02  5.359400e+01  8.462143e+01
      vertex   2.181847e+02  5.918200e+01  9.205377e+01
      vertex   2.211410e+02  5.359400e+01  9.076181e+01
    endloop
  endfacet
  facet normal  8.106170e-01  4.995098e-01 -3.055980e-01
    outer loop
      vertex   2.211410e+02  5.359400e+01  9.076181e+01
      vertex   2.181847e+02  5.918200e+01  9.205377e+01
      vertex   2.204891e+02  5.918200e+01  9.816637e+01
    endloop
  endfacet
  facet normal  8.106263e-01  4.994997e-01 -3.055896e-01
    outer loop
      vertex   2.211410e+02  5.359400e+01  9.076181e+01
      vertex   2.204891e+02  5.918200e+01  9.816637e+01
      vertex   2.235625e+02  5.359400e+01  9.718522e+01
    endloop
  endfacet
  facet normal  8.377481e-01  4.994996e-01 -2.206315e-01
    outer loop
      vertex   2.235625e+02  5.359400e+01  9.718522e+01
      vertex   2.204891e+02  5.918200e+01  9.816637e+01
      vertex   2.221528e+02  5.918200e+01  1.044835e+02
    endloop
  endfacet
  facet normal  8.377476e-01  4.995002e-01 -2.206320e-01
    outer loop
      vertex   2.235625e+02  5.359400e+01  9.718522e+01
      vertex   2.221528e+02  5.918200e+01  1.044835e+02
      vertex   2.253108e+02  5.359400e+01  1.038236e+02
    endloop
  endfacet
  facet normal  8.559939e-01  4.995007e-01 -1.333177e-01
    outer loop
      vertex   2.253108e+02  5.359400e+01  1.038236e+02
      vertex   2.221528e+02  5.918200e+01  1.044835e+02
      vertex   2.231581e+02  5.918200e+01  1.109382e+02
    endloop
  endfacet
  facet normal  8.559950e-01  4.994992e-01 -1.333162e-01
    outer loop
      vertex   2.253108e+02  5.359400e+01  1.038236e+02
      vertex   2.231581e+02  5.918200e+01  1.109382e+02
      vertex   2.263672e+02  5.359400e+01  1.106065e+02
    endloop
  endfacet
  facet normal  8.651664e-01  4.994991e-01 -4.458472e-02
    outer loop
      vertex   2.263672e+02  5.359400e+01  1.106065e+02
      vertex   2.231581e+02  5.918200e+01  1.109382e+02
      vertex   2.234943e+02  5.918200e+01  1.174621e+02
    endloop
  endfacet
  facet normal  8.651590e-01  4.995108e-01 -4.459736e-02
    outer loop
      vertex   2.263672e+02  5.359400e+01  1.106065e+02
      vertex   2.234943e+02  5.918200e+01  1.174621e+02
      vertex   2.267206e+02  5.359400e+01  1.174621e+02
    endloop
  endfacet
  facet normal  8.651594e-01  4.995110e-01  4.458503e-02
    outer loop
      vertex   2.267206e+02  5.359400e+01  1.174621e+02
      vertex   2.234943e+02  5.918200e+01  1.174621e+02
      vertex   2.231581e+02  5.918200e+01  1.239859e+02
    endloop
  endfacet
  facet normal  8.651652e-01  4.995000e-01  4.459764e-02
    outer loop
      vertex   2.267206e+02  5.359400e+01  1.174621e+02
      vertex   2.231581e+02  5.918200e+01  1.239859e+02
      vertex   2.263672e+02  5.359400e+01  1.243177e+02
    endloop
  endfacet
  facet normal  8.559940e-01  4.995010e-01  1.333157e-01
    outer loop
      vertex   2.263672e+02  5.359400e+01  1.243177e+02
      vertex   2.231581e+02  5.918200e+01  1.239859e+02
      vertex   2.221528e+02  5.918200e+01  1.304407e+02
    endloop
  endfacet
  facet normal  8.559941e-01  4.995006e-01  1.333161e-01
    outer loop
      vertex   2.263672e+02  5.359400e+01  1.243177e+02
      vertex   2.221528e+02  5.918200e+01  1.304407e+02
      vertex   2.253108e+02  5.359400e+01  1.311006e+02
    endloop
  endfacet
  facet normal  8.377475e-01  4.995001e-01  2.206327e-01
    outer loop
      vertex   2.253108e+02  5.359400e+01  1.311006e+02
      vertex   2.221528e+02  5.918200e+01  1.304407e+02
      vertex   2.204891e+02  5.918200e+01  1.367578e+02
    endloop
  endfacet
  facet normal  8.377479e-01  4.994986e-01  2.206346e-01
    outer loop
      vertex   2.253108e+02  5.359400e+01  1.311006e+02
      vertex   2.204891e+02  5.918200e+01  1.367578e+02
      vertex   2.235625e+02  5.359400e+01  1.377389e+02
    endloop
  endfacet
  facet normal  8.106236e-01  4.994979e-01  3.055997e-01
    outer loop
      vertex   2.235625e+02  5.359400e+01  1.377389e+02
      vertex   2.204891e+02  5.918200e+01  1.367578e+02
      vertex   2.181847e+02  5.918200e+01  1.428704e+02
    endloop
  endfacet
  facet normal  8.106224e-01  4.995064e-01  3.055891e-01
    outer loop
      vertex   2.235625e+02  5.359400e+01  1.377389e+02
      vertex   2.181847e+02  5.918200e+01  1.428704e+02
      vertex   2.211410e+02  5.359400e+01  1.441623e+02
    endloop
  endfacet
  facet normal  7.749049e-01  4.995054e-01  3.873198e-01
    outer loop
      vertex   2.211410e+02  5.359400e+01  1.441623e+02
      vertex   2.181847e+02  5.918200e+01  1.428704e+02
      vertex   2.152641e+02  5.918200e+01  1.487136e+02
    endloop
  endfacet
  facet normal  7.749050e-01  4.994995e-01  3.873273e-01
    outer loop
      vertex   2.211410e+02  5.359400e+01  1.441623e+02
      vertex   2.152641e+02  5.918200e+01  1.487136e+02
      vertex   2.180718e+02  5.359400e+01  1.503027e+02
    endloop
  endfacet
  facet normal  7.309744e-01  4.995001e-01  4.649473e-01
    outer loop
      vertex   2.180718e+02  5.359400e+01  1.503027e+02
      vertex   2.152641e+02  5.918200e+01  1.487136e+02
      vertex   2.117581e+02  5.918200e+01  1.542256e+02
    endloop
  endfacet
  facet normal  7.309754e-01  4.995087e-01  4.649366e-01
    outer loop
      vertex   2.180718e+02  5.359400e+01  1.503027e+02
      vertex   2.117581e+02  5.918200e+01  1.542256e+02
      vertex   2.143876e+02  5.359400e+01  1.560950e+02
    endloop
  endfacet
  facet normal  6.792931e-01  4.995094e-01  5.376350e-01
    outer loop
      vertex   2.143876e+02  5.359400e+01  1.560950e+02
      vertex   2.117581e+02  5.918200e+01  1.542256e+02
      vertex   2.077040e+02  5.918200e+01  1.593479e+02
    endloop
  endfacet
  facet normal  6.792912e-01  4.995013e-01  5.376448e-01
    outer loop
      vertex   2.143876e+02  5.359400e+01  1.560950e+02
      vertex   2.077040e+02  5.918200e+01  1.593479e+02
      vertex   2.101273e+02  5.359400e+01  1.614777e+02
    endloop
  endfacet
  facet normal  6.204098e-01  4.995013e-01  6.046404e-01
    outer loop
      vertex   2.101273e+02  5.359400e+01  1.614777e+02
      vertex   2.077040e+02  5.918200e+01  1.593479e+02
      vertex   2.031446e+02  5.918200e+01  1.640262e+02
    endloop
  endfacet
  facet normal  6.204111e-01  4.995047e-01  6.046364e-01
    outer loop
      vertex   2.101273e+02  5.359400e+01  1.614777e+02
      vertex   2.031446e+02  5.918200e+01  1.640262e+02
      vertex   2.053361e+02  5.359400e+01  1.663939e+02
    endloop
  endfacet
  facet normal  5.549539e-01  4.995049e-01  6.652226e-01
    outer loop
      vertex   2.053361e+02  5.359400e+01  1.663939e+02
      vertex   2.031446e+02  5.918200e+01  1.640262e+02
      vertex   1.981284e+02  5.918200e+01  1.682109e+02
    endloop
  endfacet
  facet normal  5.549527e-01  4.995025e-01  6.652254e-01
    outer loop
      vertex   2.053361e+02  5.359400e+01  1.663939e+02
      vertex   1.981284e+02  5.918200e+01  1.682109e+02
      vertex   2.000648e+02  5.359400e+01  1.707914e+02
    endloop
  endfacet
  facet normal  4.836082e-01  4.995027e-01  7.187629e-01
    outer loop
      vertex   2.000648e+02  5.359400e+01  1.707914e+02
      vertex   1.981284e+02  5.918200e+01  1.682109e+02
      vertex   1.927085e+02  5.918200e+01  1.718576e+02
    endloop
  endfacet
  facet normal  4.836108e-01  4.995070e-01  7.187582e-01
    outer loop
      vertex   2.000648e+02  5.359400e+01  1.707914e+02
      vertex   1.927085e+02  5.918200e+01  1.718576e+02
      vertex   1.943694e+02  5.359400e+01  1.746235e+02
    endloop
  endfacet
  facet normal  4.071526e-01  4.995066e-01  7.646698e-01
    outer loop
      vertex   1.943694e+02  5.359400e+01  1.746235e+02
      vertex   1.927085e+02  5.918200e+01  1.718576e+02
      vertex   1.869424e+02  5.918200e+01  1.749278e+02
    endloop
  endfacet
  facet normal  4.071514e-01  4.995048e-01  7.646716e-01
    outer loop
      vertex   1.943694e+02  5.359400e+01  1.746235e+02
      vertex   1.869424e+02  5.918200e+01  1.749278e+02
      vertex   1.883101e+02  5.359400e+01  1.778498e+02
    endloop
  endfacet
  facet normal  3.263568e-01  4.995041e-01  8.024880e-01
    outer loop
      vertex   1.883101e+02  5.359400e+01  1.778498e+02
      vertex   1.869424e+02  5.918200e+01  1.749278e+02
      vertex   1.808912e+02  5.918200e+01  1.773887e+02
    endloop
  endfacet
  facet normal  3.263581e-01  4.995057e-01  8.024864e-01
    outer loop
      vertex   1.883101e+02  5.359400e+01  1.778498e+02
      vertex   1.808912e+02  5.918200e+01  1.773887e+02
      vertex   1.819511e+02  5.359400e+01  1.804359e+02
    endloop
  endfacet
  facet normal  2.421265e-01  4.995066e-01  8.317859e-01
    outer loop
      vertex   1.819511e+02  5.359400e+01  1.804359e+02
      vertex   1.808912e+02  5.918200e+01  1.773887e+02
      vertex   1.746190e+02  5.918200e+01  1.792145e+02
    endloop
  endfacet
  facet normal  2.421258e-01  4.995058e-01  8.317866e-01
    outer loop
      vertex   1.819511e+02  5.359400e+01  1.804359e+02
      vertex   1.746190e+02  5.918200e+01  1.792145e+02
      vertex   1.753600e+02  5.359400e+01  1.823545e+02
    endloop
  endfacet
  facet normal  1.553186e-01  4.995064e-01  8.522731e-01
    outer loop
      vertex   1.753600e+02  5.359400e+01  1.823545e+02
      vertex   1.746190e+02  5.918200e+01  1.792145e+02
      vertex   1.681923e+02  5.918200e+01  1.803857e+02
    endloop
  endfacet
  facet normal  1.553117e-01  4.994996e-01  8.522784e-01
    outer loop
      vertex   1.753600e+02  5.359400e+01  1.823545e+02
      vertex   1.681923e+02  5.918200e+01  1.803857e+02
      vertex   1.686065e+02  5.359400e+01  1.835852e+02
    endloop
  endfacet
  facet normal  6.685147e-02  4.994998e-01  8.637307e-01
    outer loop
      vertex   1.686065e+02  5.359400e+01  1.835852e+02
      vertex   1.681923e+02  5.918200e+01  1.803857e+02
      vertex   1.616792e+02  5.918200e+01  1.808898e+02
    endloop
  endfacet
  facet normal  6.685977e-02  4.995077e-01  8.637255e-01
    outer loop
      vertex   1.686065e+02  5.359400e+01  1.835852e+02
      vertex   1.616792e+02  5.918200e+01  1.808898e+02
      vertex   1.617623e+02  5.359400e+01  1.841150e+02
    endloop
  endfacet
  facet normal -2.230569e-02  4.995074e-01  8.660225e-01
    outer loop
      vertex   1.617623e+02  5.359400e+01  1.841150e+02
      vertex   1.616792e+02  5.918200e+01  1.808898e+02
      vertex   1.551489e+02  5.918200e+01  1.807216e+02
    endloop
  endfacet
  facet normal -2.231239e-02  4.995014e-01  8.660257e-01
    outer loop
      vertex   1.617623e+02  5.359400e+01  1.841150e+02
      vertex   1.551489e+02  5.918200e+01  1.807216e+02
      vertex   1.548999e+02  5.359400e+01  1.839382e+02
    endloop
  endfacet
  facet normal -1.112377e-01  4.995013e-01  8.591418e-01
    outer loop
      vertex   1.548999e+02  5.359400e+01  1.839382e+02
      vertex   1.551489e+02  5.918200e+01  1.807216e+02
      vertex   1.486704e+02  5.918200e+01  1.798828e+02
    endloop
  endfacet
  facet normal -1.112314e-01  4.995066e-01  8.591396e-01
    outer loop
      vertex   1.548999e+02  5.359400e+01  1.839382e+02
      vertex   1.486704e+02  5.918200e+01  1.798828e+02
      vertex   1.480920e+02  5.359400e+01  1.830568e+02
    endloop
  endfacet
  facet normal -1.989747e-01  4.995067e-01  8.431502e-01
    outer loop
      vertex   1.480920e+02  5.359400e+01  1.830568e+02
      vertex   1.486704e+02  5.918200e+01  1.798828e+02
      vertex   1.423125e+02  5.918200e+01  1.783824e+02
    endloop
  endfacet
  facet normal -1.989777e-01  4.995041e-01  8.431509e-01
    outer loop
      vertex   1.480920e+02  5.359400e+01  1.830568e+02
      vertex   1.423125e+02  5.918200e+01  1.783824e+02
      vertex   1.414109e+02  5.359400e+01  1.814801e+02
    endloop
  endfacet
  facet normal -2.846179e-01  4.995031e-01  8.182232e-01
    outer loop
      vertex   1.414109e+02  5.359400e+01  1.814801e+02
      vertex   1.423125e+02  5.918200e+01  1.783824e+02
      vertex   1.361426e+02  5.918200e+01  1.762362e+02
    endloop
  endfacet
  facet normal -2.846250e-01  4.994974e-01  8.182243e-01
    outer loop
      vertex   1.414109e+02  5.359400e+01  1.814801e+02
      vertex   1.361426e+02  5.918200e+01  1.762362e+02
      vertex   1.349272e+02  5.359400e+01  1.792247e+02
    endloop
  endfacet
  facet normal -3.672431e-01  4.994973e-01  7.846240e-01
    outer loop
      vertex   1.349272e+02  5.359400e+01  1.792247e+02
      vertex   1.361426e+02  5.918200e+01  1.762362e+02
      vertex   1.302261e+02  5.918200e+01  1.734670e+02
    endloop
  endfacet
  facet normal -3.672428e-01  4.994975e-01  7.846241e-01
    outer loop
      vertex   1.349272e+02  5.359400e+01  1.792247e+02
      vertex   1.302261e+02  5.918200e+01  1.734670e+02
      vertex   1.287099e+02  5.359400e+01  1.763147e+02
    endloop
  endfacet
  facet normal -4.459748e-01  4.994971e-01  7.427039e-01
    outer loop
      vertex   1.287099e+02  5.359400e+01  1.763147e+02
      vertex   1.302261e+02  5.918200e+01  1.734670e+02
      vertex   1.246257e+02  5.918200e+01  1.701041e+02
    endloop
  endfacet
  facet normal -4.459720e-01  4.994994e-01  7.427041e-01
    outer loop
      vertex   1.287099e+02  5.359400e+01  1.763147e+02
      vertex   1.246257e+02  5.918200e+01  1.701041e+02
      vertex   1.228247e+02  5.359400e+01  1.727808e+02
    endloop
  endfacet
  facet normal -5.199710e-01  4.994994e-01  6.929145e-01
    outer loop
      vertex   1.228247e+02  5.359400e+01  1.727808e+02
      vertex   1.246257e+02  5.918200e+01  1.701041e+02
      vertex   1.194007e+02  5.918200e+01  1.661832e+02
    endloop
  endfacet
  facet normal -5.199728e-01  4.994980e-01  6.929142e-01
    outer loop
      vertex   1.228247e+02  5.359400e+01  1.727808e+02
      vertex   1.194007e+02  5.918200e+01  1.661832e+02
      vertex   1.173340e+02  5.359400e+01  1.686605e+02
    endloop
  endfacet
  facet normal -5.884675e-01  4.994983e-01  6.357731e-01
    outer loop
      vertex   1.173340e+02  5.359400e+01  1.686605e+02
      vertex   1.194007e+02  5.918200e+01  1.661832e+02
      vertex   1.146066e+02  5.918200e+01  1.617458e+02
    endloop
  endfacet
  facet normal -5.884634e-01  4.995017e-01  6.357743e-01
    outer loop
      vertex   1.173340e+02  5.359400e+01  1.686605e+02
      vertex   1.146066e+02  5.918200e+01  1.617458e+02
      vertex   1.122961e+02  5.359400e+01  1.639975e+02
    endloop
  endfacet
  facet normal -6.507131e-01  4.995023e-01  5.719004e-01
    outer loop
      vertex   1.122961e+02  5.359400e+01  1.639975e+02
      vertex   1.146066e+02  5.918200e+01  1.617458e+02
      vertex   1.102941e+02  5.918200e+01  1.568390e+02
    endloop
  endfacet
  facet normal -6.507208e-01  4.994956e-01  5.718973e-01
    outer loop
      vertex   1.122961e+02  5.359400e+01  1.639975e+02
      vertex   1.102941e+02  5.918200e+01  1.568390e+02
      vertex   1.077644e+02  5.359400e+01  1.588412e+02
    endloop
  endfacet
  facet normal -7.060722e-01  4.994955e-01  5.019625e-01
    outer loop
      vertex   1.077644e+02  5.359400e+01  1.588412e+02
      vertex   1.102941e+02  5.918200e+01  1.568390e+02
      vertex   1.065090e+02  5.918200e+01  1.515148e+02
    endloop
  endfacet
  facet normal -7.060655e-01  4.995015e-01  5.019659e-01
    outer loop
      vertex   1.077644e+02  5.359400e+01  1.588412e+02
      vertex   1.065090e+02  5.918200e+01  1.515148e+02
      vertex   1.037868e+02  5.359400e+01  1.532463e+02
    endloop
  endfacet
  facet normal -7.539450e-01  4.995014e-01  4.266912e-01
    outer loop
      vertex   1.037868e+02  5.359400e+01  1.532463e+02
      vertex   1.065090e+02  5.918200e+01  1.515148e+02
      vertex   1.032915e+02  5.918200e+01  1.458296e+02
    endloop
  endfacet
  facet normal -7.539378e-01  4.995082e-01  4.266959e-01
    outer loop
      vertex   1.037868e+02  5.359400e+01  1.532463e+02
      vertex   1.032915e+02  5.918200e+01  1.458296e+02
      vertex   1.004056e+02  5.359400e+01  1.472720e+02
    endloop
  endfacet
  facet normal -7.938111e-01  4.995089e-01  3.469218e-01
    outer loop
      vertex   1.004056e+02  5.359400e+01  1.472720e+02
      vertex   1.032915e+02  5.918200e+01  1.458296e+02
      vertex   1.006755e+02  5.918200e+01  1.398438e+02
    endloop
  endfacet
  facet normal -7.938187e-01  4.995012e-01  3.469158e-01
    outer loop
      vertex   1.004056e+02  5.359400e+01  1.472720e+02
      vertex   1.006755e+02  5.918200e+01  1.398438e+02
      vertex   9.765665e+01  5.359400e+01  1.409818e+02
    endloop
  endfacet
  facet normal -8.252796e-01  4.995019e-01  2.634605e-01
    outer loop
      vertex   9.765665e+01  5.359400e+01  1.409818e+02
      vertex   1.006755e+02  5.918200e+01  1.398438e+02
      vertex   9.868885e+01  5.918200e+01  1.336207e+02
    endloop
  endfacet
  facet normal -8.252795e-01  4.995020e-01  2.634606e-01
    outer loop
      vertex   9.765665e+01  5.359400e+01  1.409818e+02
      vertex   9.868885e+01  5.918200e+01  1.336207e+02
      vertex   9.556899e+01  5.359400e+01  1.344423e+02
    endloop
  endfacet
  facet normal -8.479955e-01  4.995023e-01  1.772035e-01
    outer loop
      vertex   9.556899e+01  5.359400e+01  1.344423e+02
      vertex   9.868885e+01  5.918200e+01  1.336207e+02
      vertex   9.735261e+01  5.918200e+01  1.272262e+02
    endloop
  endfacet
  facet normal -8.479946e-01  4.995036e-01  1.772047e-01
    outer loop
      vertex   9.556899e+01  5.359400e+01  1.344423e+02
      vertex   9.735261e+01  5.918200e+01  1.272262e+02
      vertex   9.416480e+01  5.359400e+01  1.277227e+02
    endloop
  endfacet
  facet normal -8.617203e-01  4.995033e-01  8.907562e-02
    outer loop
      vertex   9.416480e+01  5.359400e+01  1.277227e+02
      vertex   9.735261e+01  5.918200e+01  1.272262e+02
      vertex   9.668092e+01  5.918200e+01  1.207283e+02
    endloop
  endfacet
  facet normal -8.617207e-01  4.995028e-01  8.907507e-02
    outer loop
      vertex   9.416480e+01  5.359400e+01  1.277227e+02
      vertex   9.668092e+01  5.918200e+01  1.207283e+02
      vertex   9.345897e+01  5.359400e+01  1.208944e+02
    endloop
  endfacet
  facet normal -8.658100e-01  4.998758e-01  2.229964e-02
    outer loop
      vertex   9.345897e+01  5.359400e+01  1.208944e+02
      vertex   9.668092e+01  5.918200e+01  1.207283e+02
      vertex   9.337057e+01  5.359400e+01  1.174621e+02
    endloop
  endfacet
  facet normal -9.996685e-01  0.000000e+00  2.574727e-02
    outer loop
      vertex   9.345897e+01  5.359400e+01  1.208944e+02
      vertex   9.337057e+01  5.359400e+01  1.174621e+02
      vertex   9.337057e+01  5.283200e+01  1.174621e+02
    endloop
  endfacet
  facet normal -9.996685e-01  0.000000e+00 -2.574659e-02
    outer loop
      vertex   9.337057e+01  5.283200e+01  1.174621e+02
      vertex   9.337057e+01  5.359400e+01  1.174621e+02
      vertex   9.345897e+01  5.283200e+01  1.140297e+02
    endloop
  endfacet
  facet normal -9.996685e-01  0.000000e+00 -2.574659e-02
    outer loop
      vertex   9.337057e+01  5.359400e+01  1.174621e+02
      vertex   9.345897e+01  5.359400e+01  1.140297e+02
      vertex   9.345897e+01  5.283200e+01  1.140297e+02
    endloop
  endfacet
  facet normal -9.946999e-01  0.000000e+00 -1.028210e-01
    outer loop
      vertex   9.345897e+01  5.283200e+01  1.140297e+02
      vertex   9.345897e+01  5.359400e+01  1.140297e+02
      vertex   9.416480e+01  5.359400e+01  1.072014e+02
    endloop
  endfacet
  facet normal -9.946999e-01  0.000000e+00 -1.028210e-01
    outer loop
      vertex   9.345897e+01  5.283200e+01  1.140297e+02
      vertex   9.416480e+01  5.359400e+01  1.072014e+02
      vertex   9.416480e+01  5.283200e+01  1.072014e+02
    endloop
  endfacet
  facet normal -9.788553e-01  0.000000e+00 -2.045538e-01
    outer loop
      vertex   9.416480e+01  5.283200e+01  1.072014e+02
      vertex   9.416480e+01  5.359400e+01  1.072014e+02
      vertex   9.556899e+01  5.359400e+01  1.004819e+02
    endloop
  endfacet
  facet normal -9.788553e-01  0.000000e+00 -2.045538e-01
    outer loop
      vertex   9.416480e+01  5.283200e+01  1.072014e+02
      vertex   9.556899e+01  5.359400e+01  1.004819e+02
      vertex   9.556899e+01  5.283200e+01  1.004819e+02
    endloop
  endfacet
  facet normal -9.526358e-01  0.000000e+00 -3.041137e-01
    outer loop
      vertex   9.556899e+01  5.283200e+01  1.004819e+02
      vertex   9.556899e+01  5.359400e+01  1.004819e+02
      vertex   9.765665e+01  5.359400e+01  9.394233e+01
    endloop
  endfacet
  facet normal -9.526358e-01  0.000000e+00 -3.041137e-01
    outer loop
      vertex   9.556899e+01  5.283200e+01  1.004819e+02
      vertex   9.765665e+01  5.359400e+01  9.394233e+01
      vertex   9.765665e+01  5.283200e+01  9.394233e+01
    endloop
  endfacet
  facet normal -9.163188e-01  0.000000e+00 -4.004494e-01
    outer loop
      vertex   9.765665e+01  5.283200e+01  9.394233e+01
      vertex   9.765665e+01  5.359400e+01  9.394233e+01
      vertex   1.004056e+02  5.359400e+01  8.765210e+01
    endloop
  endfacet
  facet normal -9.163188e-01  0.000000e+00 -4.004494e-01
    outer loop
      vertex   9.765665e+01  5.283200e+01  9.394233e+01
      vertex   1.004056e+02  5.359400e+01  8.765210e+01
      vertex   1.004056e+02  5.283200e+01  8.765210e+01
    endloop
  endfacet
  facet normal -8.702851e-01  0.000000e+00 -4.925484e-01
    outer loop
      vertex   1.004056e+02  5.283200e+01  8.765210e+01
      vertex   1.004056e+02  5.359400e+01  8.765210e+01
      vertex   1.037868e+02  5.359400e+01  8.167786e+01
    endloop
  endfacet
  facet normal -8.702851e-01  0.000000e+00 -4.925484e-01
    outer loop
      vertex   1.004056e+02  5.283200e+01  8.765210e+01
      vertex   1.037868e+02  5.359400e+01  8.167786e+01
      vertex   1.037868e+02  5.283200e+01  8.167786e+01
    endloop
  endfacet
  facet normal -8.150246e-01  0.000000e+00 -5.794262e-01
    outer loop
      vertex   1.037868e+02  5.283200e+01  8.167786e+01
      vertex   1.037868e+02  5.359400e+01  8.167786e+01
      vertex   1.077644e+02  5.359400e+01  7.608294e+01
    endloop
  endfacet
  facet normal -8.150246e-01  0.000000e+00 -5.794262e-01
    outer loop
      vertex   1.037868e+02  5.283200e+01  8.167786e+01
      vertex   1.077644e+02  5.359400e+01  7.608294e+01
      vertex   1.077644e+02  5.283200e+01  7.608294e+01
    endloop
  endfacet
  facet normal -7.511348e-01  0.000000e+00 -6.601489e-01
    outer loop
      vertex   1.077644e+02  5.283200e+01  7.608294e+01
      vertex   1.077644e+02  5.359400e+01  7.608294e+01
      vertex   1.122961e+02  5.359400e+01  7.092665e+01
    endloop
  endfacet
  facet normal -7.511348e-01  0.000000e+00 -6.601489e-01
    outer loop
      vertex   1.077644e+02  5.283200e+01  7.608294e+01
      vertex   1.122961e+02  5.359400e+01  7.092665e+01
      vertex   1.122961e+02  5.283200e+01  7.092665e+01
    endloop
  endfacet
  facet normal -6.792729e-01  0.000000e+00 -7.338858e-01
    outer loop
      vertex   1.122961e+02  5.283200e+01  7.092665e+01
      vertex   1.122961e+02  5.359400e+01  7.092665e+01
      vertex   1.173340e+02  5.359400e+01  6.626365e+01
    endloop
  endfacet
  facet normal -6.792729e-01  0.000000e+00 -7.338858e-01
    outer loop
      vertex   1.122961e+02  5.283200e+01  7.092665e+01
      vertex   1.173340e+02  5.359400e+01  6.626365e+01
      vertex   1.173340e+02  5.283200e+01  6.626365e+01
    endloop
  endfacet
  facet normal -6.002110e-01  0.000000e+00 -7.998416e-01
    outer loop
      vertex   1.173340e+02  5.283200e+01  6.626365e+01
      vertex   1.173340e+02  5.359400e+01  6.626365e+01
      vertex   1.228247e+02  5.359400e+01  6.214336e+01
    endloop
  endfacet
  facet normal -6.002110e-01  0.000000e+00 -7.998416e-01
    outer loop
      vertex   1.173340e+02  5.283200e+01  6.626365e+01
      vertex   1.228247e+02  5.359400e+01  6.214336e+01
      vertex   1.228247e+02  5.283200e+01  6.214336e+01
    endloop
  endfacet
  facet normal -5.147924e-01  0.000000e+00 -8.573149e-01
    outer loop
      vertex   1.228247e+02  5.283200e+01  6.214336e+01
      vertex   1.228247e+02  5.359400e+01  6.214336e+01
      vertex   1.287099e+02  5.359400e+01  5.860947e+01
    endloop
  endfacet
  facet normal -5.147924e-01  0.000000e+00 -8.573149e-01
    outer loop
      vertex   1.228247e+02  5.283200e+01  6.214336e+01
      vertex   1.287099e+02  5.359400e+01  5.860947e+01
      vertex   1.287099e+02  5.283200e+01  5.860947e+01
    endloop
  endfacet
  facet normal -4.239181e-01  0.000000e+00 -9.057005e-01
    outer loop
      vertex   1.287099e+02  5.283200e+01  5.860947e+01
      vertex   1.287099e+02  5.359400e+01  5.860947e+01
      vertex   1.349272e+02  5.359400e+01  5.569943e+01
    endloop
  endfacet
  facet normal -4.239181e-01  0.000000e+00 -9.057005e-01
    outer loop
      vertex   1.287099e+02  5.283200e+01  5.860947e+01
      vertex   1.349272e+02  5.359400e+01  5.569943e+01
      vertex   1.349272e+02  5.283200e+01  5.569943e+01
    endloop
  endfacet
  facet normal -3.285397e-01  0.000000e+00 -9.444902e-01
    outer loop
      vertex   1.349272e+02  5.283200e+01  5.569943e+01
      vertex   1.349272e+02  5.359400e+01  5.569943e+01
      vertex   1.414109e+02  5.359400e+01  5.344408e+01
    endloop
  endfacet
  facet normal -3.285397e-01  0.000000e+00 -9.444902e-01
    outer loop
      vertex   1.349272e+02  5.283200e+01  5.569943e+01
      vertex   1.414109e+02  5.359400e+01  5.344408e+01
      vertex   1.414109e+02  5.283200e+01  5.344408e+01
    endloop
  endfacet
  facet normal -2.296890e-01  0.000000e+00 -9.732641e-01
    outer loop
      vertex   1.414109e+02  5.283200e+01  5.344408e+01
      vertex   1.414109e+02  5.359400e+01  5.344408e+01
      vertex   1.480920e+02  5.359400e+01  5.186735e+01
    endloop
  endfacet
  facet normal -2.296890e-01  0.000000e+00 -9.732641e-01
    outer loop
      vertex   1.414109e+02  5.283200e+01  5.344408e+01
      vertex   1.480920e+02  5.359400e+01  5.186735e+01
      vertex   1.480920e+02  5.283200e+01  5.186735e+01
    endloop
  endfacet
  facet normal -1.283984e-01  0.000000e+00 -9.917226e-01
    outer loop
      vertex   1.480920e+02  5.283200e+01  5.186735e+01
      vertex   1.480920e+02  5.359400e+01  5.186735e+01
      vertex   1.548999e+02  5.359400e+01  5.098593e+01
    endloop
  endfacet
  facet normal -1.283984e-01  0.000000e+00 -9.917226e-01
    outer loop
      vertex   1.480920e+02  5.283200e+01  5.186735e+01
      vertex   1.548999e+02  5.359400e+01  5.098593e+01
      vertex   1.548999e+02  5.283200e+01  5.098593e+01
    endloop
  endfacet
  facet normal -2.574779e-02  0.000000e+00 -9.996685e-01
    outer loop
      vertex   1.548999e+02  5.283200e+01  5.098593e+01
      vertex   1.548999e+02  5.359400e+01  5.098593e+01
      vertex   1.617623e+02  5.359400e+01  5.080918e+01
    endloop
  endfacet
  facet normal -2.574779e-02  0.000000e+00 -9.996685e-01
    outer loop
      vertex   1.548999e+02  5.283200e+01  5.098593e+01
      vertex   1.617623e+02  5.359400e+01  5.080918e+01
      vertex   1.617623e+02  5.283200e+01  5.080918e+01
    endloop
  endfacet
  facet normal  7.717604e-02  0.000000e+00 -9.970175e-01
    outer loop
      vertex   1.617623e+02  5.283200e+01  5.080918e+01
      vertex   1.617623e+02  5.359400e+01  5.080918e+01
      vertex   1.686065e+02  5.359400e+01  5.133897e+01
    endloop
  endfacet
  facet normal  7.717604e-02  0.000000e+00 -9.970175e-01
    outer loop
      vertex   1.617623e+02  5.283200e+01  5.080918e+01
      vertex   1.686065e+02  5.359400e+01  5.133897e+01
      vertex   1.686065e+02  5.283200e+01  5.133897e+01
    endloop
  endfacet
  facet normal  1.792793e-01  0.000000e+00 -9.837982e-01
    outer loop
      vertex   1.686065e+02  5.283200e+01  5.133897e+01
      vertex   1.686065e+02  5.359400e+01  5.133897e+01
      vertex   1.753600e+02  5.359400e+01  5.256967e+01
    endloop
  endfacet
  facet normal  1.792793e-01  0.000000e+00 -9.837982e-01
    outer loop
      vertex   1.686065e+02  5.283200e+01  5.133897e+01
      vertex   1.753600e+02  5.359400e+01  5.256967e+01
      vertex   1.753600e+02  5.283200e+01  5.256967e+01
    endloop
  endfacet
  facet normal  2.794876e-01  0.000000e+00 -9.601493e-01
    outer loop
      vertex   1.753600e+02  5.283200e+01  5.256967e+01
      vertex   1.753600e+02  5.359400e+01  5.256967e+01
      vertex   1.819511e+02  5.359400e+01  5.448826e+01
    endloop
  endfacet
  facet normal  2.794876e-01  0.000000e+00 -9.601493e-01
    outer loop
      vertex   1.753600e+02  5.283200e+01  5.256967e+01
      vertex   1.819511e+02  5.359400e+01  5.448826e+01
      vertex   1.819511e+02  5.283200e+01  5.448826e+01
    endloop
  endfacet
  facet normal  3.767238e-01  0.000000e+00 -9.263257e-01
    outer loop
      vertex   1.819511e+02  5.283200e+01  5.448826e+01
      vertex   1.819511e+02  5.359400e+01  5.448826e+01
      vertex   1.883101e+02  5.359400e+01  5.707438e+01
    endloop
  endfacet
  facet normal  3.767238e-01  0.000000e+00 -9.263257e-01
    outer loop
      vertex   1.819511e+02  5.283200e+01  5.448826e+01
      vertex   1.883101e+02  5.359400e+01  5.707438e+01
      vertex   1.883101e+02  5.283200e+01  5.707438e+01
    endloop
  endfacet
  facet normal  4.699777e-01  0.000000e+00 -8.826783e-01
    outer loop
      vertex   1.883101e+02  5.283200e+01  5.707438e+01
      vertex   1.883101e+02  5.359400e+01  5.707438e+01
      vertex   1.943694e+02  5.359400e+01  6.030062e+01
    endloop
  endfacet
  facet normal  4.699777e-01  0.000000e+00 -8.826783e-01
    outer loop
      vertex   1.883101e+02  5.283200e+01  5.707438e+01
      vertex   1.943694e+02  5.359400e+01  6.030062e+01
      vertex   1.943694e+02  5.283200e+01  6.030062e+01
    endloop
  endfacet
  facet normal  5.582491e-01  0.000000e+00 -8.296733e-01
    outer loop
      vertex   1.943694e+02  5.283200e+01  6.030062e+01
      vertex   1.943694e+02  5.359400e+01  6.030062e+01
      vertex   2.000648e+02  5.359400e+01  6.413280e+01
    endloop
  endfacet
  facet normal  5.582491e-01  0.000000e+00 -8.296733e-01
    outer loop
      vertex   1.943694e+02  5.283200e+01  6.030062e+01
      vertex   2.000648e+02  5.359400e+01  6.413280e+01
      vertex   2.000648e+02  5.283200e+01  6.413280e+01
    endloop
  endfacet
  facet normal  6.405905e-01  0.000000e+00 -7.678826e-01
    outer loop
      vertex   2.000648e+02  5.283200e+01  6.413280e+01
      vertex   2.000648e+02  5.359400e+01  6.413280e+01
      vertex   2.053361e+02  5.359400e+01  6.853027e+01
    endloop
  endfacet
  facet normal  6.405905e-01  0.000000e+00 -7.678826e-01
    outer loop
      vertex   2.000648e+02  5.283200e+01  6.413280e+01
      vertex   2.053361e+02  5.359400e+01  6.853027e+01
      vertex   2.053361e+02  5.283200e+01  6.853027e+01
    endloop
  endfacet
  facet normal  7.161494e-01  0.000000e+00 -6.979470e-01
    outer loop
      vertex   2.053361e+02  5.283200e+01  6.853027e+01
      vertex   2.053361e+02  5.359400e+01  6.853027e+01
      vertex   2.101273e+02  5.359400e+01  7.344643e+01
    endloop
  endfacet
  facet normal  7.161494e-01  0.000000e+00 -6.979470e-01
    outer loop
      vertex   2.053361e+02  5.283200e+01  6.853027e+01
      vertex   2.101273e+02  5.359400e+01  7.344643e+01
      vertex   2.101273e+02  5.283200e+01  7.344643e+01
    endloop
  endfacet
  facet normal  7.841195e-01  0.000000e+00 -6.206098e-01
    outer loop
      vertex   2.101273e+02  5.283200e+01  7.344643e+01
      vertex   2.101273e+02  5.359400e+01  7.344643e+01
      vertex   2.143876e+02  5.359400e+01  7.882917e+01
    endloop
  endfacet
  facet normal  7.841195e-01  0.000000e+00 -6.206098e-01
    outer loop
      vertex   2.101273e+02  5.283200e+01  7.344643e+01
      vertex   2.143876e+02  5.359400e+01  7.882917e+01
      vertex   2.143876e+02  5.283200e+01  7.882917e+01
    endloop
  endfacet
  facet normal  8.437799e-01  0.000000e+00 -5.366895e-01
    outer loop
      vertex   2.143876e+02  5.283200e+01  7.882917e+01
      vertex   2.143876e+02  5.359400e+01  7.882917e+01
      vertex   2.180718e+02  5.359400e+01  8.462143e+01
    endloop
  endfacet
  facet normal  8.437799e-01  0.000000e+00 -5.366895e-01
    outer loop
      vertex   2.143876e+02  5.283200e+01  7.882917e+01
      vertex   2.180718e+02  5.359400e+01  8.462143e+01
      vertex   2.180718e+02  5.283200e+01  8.462143e+01
    endloop
  endfacet
  facet normal  8.944840e-01  0.000000e+00 -4.470998e-01
    outer loop
      vertex   2.180718e+02  5.283200e+01  8.462143e+01
      vertex   2.180718e+02  5.359400e+01  8.462143e+01
      vertex   2.211410e+02  5.359400e+01  9.076181e+01
    endloop
  endfacet
  facet normal  8.944840e-01  0.000000e+00 -4.470998e-01
    outer loop
      vertex   2.180718e+02  5.283200e+01  8.462143e+01
      vertex   2.211410e+02  5.359400e+01  9.076181e+01
      vertex   2.211410e+02  5.283200e+01  9.076181e+01
    endloop
  endfacet
  facet normal  9.357188e-01  0.000000e+00 -3.527469e-01
    outer loop
      vertex   2.211410e+02  5.283200e+01  9.076181e+01
      vertex   2.211410e+02  5.359400e+01  9.076181e+01
      vertex   2.235625e+02  5.359400e+01  9.718522e+01
    endloop
  endfacet
  facet normal  9.357188e-01  0.000000e+00 -3.527469e-01
    outer loop
      vertex   2.211410e+02  5.283200e+01  9.076181e+01
      vertex   2.235625e+02  5.359400e+01  9.718522e+01
      vertex   2.235625e+02  5.283200e+01  9.718522e+01
    endloop
  endfacet
  facet normal  9.670257e-01  0.000000e+00 -2.546791e-01
    outer loop
      vertex   2.235625e+02  5.283200e+01  9.718522e+01
      vertex   2.235625e+02  5.359400e+01  9.718522e+01
      vertex   2.253108e+02  5.359400e+01  1.038236e+02
    endloop
  endfacet
  facet normal  9.670257e-01  0.000000e+00 -2.546791e-01
    outer loop
      vertex   2.235625e+02  5.283200e+01  9.718522e+01
      vertex   2.253108e+02  5.359400e+01  1.038236e+02
      vertex   2.253108e+02  5.283200e+01  1.038236e+02
    endloop
  endfacet
  facet normal  9.880881e-01  0.000000e+00 -1.538889e-01
    outer loop
      vertex   2.253108e+02  5.283200e+01  1.038236e+02
      vertex   2.253108e+02  5.359400e+01  1.038236e+02
      vertex   2.263672e+02  5.359400e+01  1.106065e+02
    endloop
  endfacet
  facet normal  9.880881e-01  0.000000e+00 -1.538889e-01
    outer loop
      vertex   2.253108e+02  5.283200e+01  1.038236e+02
      vertex   2.263672e+02  5.359400e+01  1.106065e+02
      vertex   2.263672e+02  5.283200e+01  1.106065e+02
    endloop
  endfacet
  facet normal  9.986740e-01  0.000000e+00 -5.147982e-02
    outer loop
      vertex   2.263672e+02  5.283200e+01  1.106065e+02
      vertex   2.263672e+02  5.359400e+01  1.106065e+02
      vertex   2.267206e+02  5.359400e+01  1.174621e+02
    endloop
  endfacet
  facet normal  9.986740e-01  0.000000e+00 -5.147982e-02
    outer loop
      vertex   2.263672e+02  5.283200e+01  1.106065e+02
      vertex   2.267206e+02  5.359400e+01  1.174621e+02
      vertex   2.267206e+02  5.283200e+01  1.174621e+02
    endloop
  endfacet
  facet normal  9.986740e-01 -0.000000e+00  5.147976e-02
    outer loop
      vertex   2.267206e+02  5.283200e+01  1.174621e+02
      vertex   2.267206e+02  5.359400e+01  1.174621e+02
      vertex   2.263672e+02  5.359400e+01  1.243177e+02
    endloop
  endfacet
  facet normal  9.986740e-01  0.000000e+00  5.147976e-02
    outer loop
      vertex   2.267206e+02  5.283200e+01  1.174621e+02
      vertex   2.263672e+02  5.359400e+01  1.243177e+02
      vertex   2.263672e+02  5.283200e+01  1.243177e+02
    endloop
  endfacet
  facet normal  9.880881e-01 -0.000000e+00  1.538889e-01
    outer loop
      vertex   2.263672e+02  5.283200e+01  1.243177e+02
      vertex   2.263672e+02  5.359400e+01  1.243177e+02
      vertex   2.253108e+02  5.359400e+01  1.311006e+02
    endloop
  endfacet
  facet normal  9.880881e-01  0.000000e+00  1.538889e-01
    outer loop
      vertex   2.263672e+02  5.283200e+01  1.243177e+02
      vertex   2.253108e+02  5.359400e+01  1.311006e+02
      vertex   2.253108e+02  5.283200e+01  1.311006e+02
    endloop
  endfacet
  facet normal  9.670249e-01 -0.000000e+00  2.546818e-01
    outer loop
      vertex   2.253108e+02  5.283200e+01  1.311006e+02
      vertex   2.253108e+02  5.359400e+01  1.311006e+02
      vertex   2.235625e+02  5.359400e+01  1.377389e+02
    endloop
  endfacet
  facet normal  9.670249e-01  0.000000e+00  2.546818e-01
    outer loop
      vertex   2.253108e+02  5.283200e+01  1.311006e+02
      vertex   2.235625e+02  5.359400e+01  1.377389e+02
      vertex   2.235625e+02  5.283200e+01  1.377389e+02
    endloop
  endfacet
  facet normal  9.357184e-01 -0.000000e+00  3.527479e-01
    outer loop
      vertex   2.235625e+02  5.283200e+01  1.377389e+02
      vertex   2.235625e+02  5.359400e+01  1.377389e+02
      vertex   2.211410e+02  5.359400e+01  1.441623e+02
    endloop
  endfacet
  facet normal  9.357184e-01  0.000000e+00  3.527479e-01
    outer loop
      vertex   2.235625e+02  5.283200e+01  1.377389e+02
      vertex   2.211410e+02  5.359400e+01  1.441623e+02
      vertex   2.211410e+02  5.283200e+01  1.441623e+02
    endloop
  endfacet
  facet normal  8.944849e-01 -0.000000e+00  4.470980e-01
    outer loop
      vertex   2.211410e+02  5.283200e+01  1.441623e+02
      vertex   2.211410e+02  5.359400e+01  1.441623e+02
      vertex   2.180718e+02  5.359400e+01  1.503027e+02
    endloop
  endfacet
  facet normal  8.944849e-01  0.000000e+00  4.470980e-01
    outer loop
      vertex   2.211410e+02  5.283200e+01  1.441623e+02
      vertex   2.180718e+02  5.359400e+01  1.503027e+02
      vertex   2.180718e+02  5.283200e+01  1.503027e+02
    endloop
  endfacet
  facet normal  8.437815e-01 -0.000000e+00  5.366869e-01
    outer loop
      vertex   2.180718e+02  5.283200e+01  1.503027e+02
      vertex   2.180718e+02  5.359400e+01  1.503027e+02
      vertex   2.143876e+02  5.359400e+01  1.560950e+02
    endloop
  endfacet
  facet normal  8.437815e-01  0.000000e+00  5.366869e-01
    outer loop
      vertex   2.180718e+02  5.283200e+01  1.503027e+02
      vertex   2.143876e+02  5.359400e+01  1.560950e+02
      vertex   2.143876e+02  5.283200e+01  1.560950e+02
    endloop
  endfacet
  facet normal  7.841173e-01 -0.000000e+00  6.206126e-01
    outer loop
      vertex   2.143876e+02  5.283200e+01  1.560950e+02
      vertex   2.143876e+02  5.359400e+01  1.560950e+02
      vertex   2.101273e+02  5.359400e+01  1.614777e+02
    endloop
  endfacet
  facet normal  7.841173e-01  0.000000e+00  6.206126e-01
    outer loop
      vertex   2.143876e+02  5.283200e+01  1.560950e+02
      vertex   2.101273e+02  5.359400e+01  1.614777e+02
      vertex   2.101273e+02  5.283200e+01  1.614777e+02
    endloop
  endfacet
  facet normal  7.161526e-01 -0.000000e+00  6.979436e-01
    outer loop
      vertex   2.101273e+02  5.283200e+01  1.614777e+02
      vertex   2.101273e+02  5.359400e+01  1.614777e+02
      vertex   2.053361e+02  5.359400e+01  1.663939e+02
    endloop
  endfacet
  facet normal  7.161526e-01  0.000000e+00  6.979436e-01
    outer loop
      vertex   2.101273e+02  5.283200e+01  1.614777e+02
      vertex   2.053361e+02  5.359400e+01  1.663939e+02
      vertex   2.053361e+02  5.283200e+01  1.663939e+02
    endloop
  endfacet
  facet normal  6.405919e-01 -0.000000e+00  7.678816e-01
    outer loop
      vertex   2.053361e+02  5.283200e+01  1.663939e+02
      vertex   2.053361e+02  5.359400e+01  1.663939e+02
      vertex   2.000648e+02  5.359400e+01  1.707914e+02
    endloop
  endfacet
  facet normal  6.405919e-01  0.000000e+00  7.678816e-01
    outer loop
      vertex   2.053361e+02  5.283200e+01  1.663939e+02
      vertex   2.000648e+02  5.359400e+01  1.707914e+02
      vertex   2.000648e+02  5.283200e+01  1.707914e+02
    endloop
  endfacet
  facet normal  5.582423e-01 -0.000000e+00  8.296780e-01
    outer loop
      vertex   2.000648e+02  5.283200e+01  1.707914e+02
      vertex   2.000648e+02  5.359400e+01  1.707914e+02
      vertex   1.943694e+02  5.359400e+01  1.746235e+02
    endloop
  endfacet
  facet normal  5.582423e-01  0.000000e+00  8.296780e-01
    outer loop
      vertex   2.000648e+02  5.283200e+01  1.707914e+02
      vertex   1.943694e+02  5.359400e+01  1.746235e+02
      vertex   1.943694e+02  5.283200e+01  1.746235e+02
    endloop
  endfacet
  facet normal  4.699829e-01 -0.000000e+00  8.826755e-01
    outer loop
      vertex   1.943694e+02  5.283200e+01  1.746235e+02
      vertex   1.943694e+02  5.359400e+01  1.746235e+02
      vertex   1.883101e+02  5.359400e+01  1.778498e+02
    endloop
  endfacet
  facet normal  4.699829e-01  0.000000e+00  8.826755e-01
    outer loop
      vertex   1.943694e+02  5.283200e+01  1.746235e+02
      vertex   1.883101e+02  5.359400e+01  1.778498e+02
      vertex   1.883101e+02  5.283200e+01  1.778498e+02
    endloop
  endfacet
  facet normal  3.767219e-01 -0.000000e+00  9.263265e-01
    outer loop
      vertex   1.883101e+02  5.283200e+01  1.778498e+02
      vertex   1.883101e+02  5.359400e+01  1.778498e+02
      vertex   1.819511e+02  5.359400e+01  1.804359e+02
    endloop
  endfacet
  facet normal  3.767219e-01  0.000000e+00  9.263265e-01
    outer loop
      vertex   1.883101e+02  5.283200e+01  1.778498e+02
      vertex   1.819511e+02  5.359400e+01  1.804359e+02
      vertex   1.819511e+02  5.283200e+01  1.804359e+02
    endloop
  endfacet
  facet normal  2.794907e-01 -0.000000e+00  9.601484e-01
    outer loop
      vertex   1.819511e+02  5.283200e+01  1.804359e+02
      vertex   1.819511e+02  5.359400e+01  1.804359e+02
      vertex   1.753600e+02  5.359400e+01  1.823545e+02
    endloop
  endfacet
  facet normal  2.794907e-01  0.000000e+00  9.601484e-01
    outer loop
      vertex   1.819511e+02  5.283200e+01  1.804359e+02
      vertex   1.753600e+02  5.359400e+01  1.823545e+02
      vertex   1.753600e+02  5.283200e+01  1.823545e+02
    endloop
  endfacet
  facet normal  1.792788e-01 -0.000000e+00  9.837983e-01
    outer loop
      vertex   1.753600e+02  5.283200e+01  1.823545e+02
      vertex   1.753600e+02  5.359400e+01  1.823545e+02
      vertex   1.686065e+02  5.359400e+01  1.835852e+02
    endloop
  endfacet
  facet normal  1.792788e-01  0.000000e+00  9.837983e-01
    outer loop
      vertex   1.753600e+02  5.283200e+01  1.823545e+02
      vertex   1.686065e+02  5.359400e+01  1.835852e+02
      vertex   1.686065e+02  5.283200e+01  1.835852e+02
    endloop
  endfacet
  facet normal  7.717770e-02 -0.000000e+00  9.970173e-01
    outer loop
      vertex   1.686065e+02  5.283200e+01  1.835852e+02
      vertex   1.686065e+02  5.359400e+01  1.835852e+02
      vertex   1.617623e+02  5.359400e+01  1.841150e+02
    endloop
  endfacet
  facet normal  7.717770e-02  0.000000e+00  9.970173e-01
    outer loop
      vertex   1.686065e+02  5.283200e+01  1.835852e+02
      vertex   1.617623e+02  5.359400e+01  1.841150e+02
      vertex   1.617623e+02  5.283200e+01  1.841150e+02
    endloop
  endfacet
  facet normal -2.575557e-02  0.000000e+00  9.996683e-01
    outer loop
      vertex   1.617623e+02  5.283200e+01  1.841150e+02
      vertex   1.617623e+02  5.359400e+01  1.841150e+02
      vertex   1.548999e+02  5.359400e+01  1.839382e+02
    endloop
  endfacet
  facet normal -2.575557e-02  0.000000e+00  9.996683e-01
    outer loop
      vertex   1.617623e+02  5.283200e+01  1.841150e+02
      vertex   1.548999e+02  5.359400e+01  1.839382e+02
      vertex   1.548999e+02  5.283200e+01  1.839382e+02
    endloop
  endfacet
  facet normal -1.283968e-01  0.000000e+00  9.917229e-01
    outer loop
      vertex   1.548999e+02  5.283200e+01  1.839382e+02
      vertex   1.548999e+02  5.359400e+01  1.839382e+02
      vertex   1.480920e+02  5.359400e+01  1.830568e+02
    endloop
  endfacet
  facet normal -1.283968e-01  0.000000e+00  9.917229e-01
    outer loop
      vertex   1.548999e+02  5.283200e+01  1.839382e+02
      vertex   1.480920e+02  5.359400e+01  1.830568e+02
      vertex   1.480920e+02  5.283200e+01  1.830568e+02
    endloop
  endfacet
  facet normal -2.296838e-01  0.000000e+00  9.732652e-01
    outer loop
      vertex   1.480920e+02  5.283200e+01  1.830568e+02
      vertex   1.480920e+02  5.359400e+01  1.830568e+02
      vertex   1.414109e+02  5.359400e+01  1.814801e+02
    endloop
  endfacet
  facet normal -2.296838e-01  0.000000e+00  9.732652e-01
    outer loop
      vertex   1.480920e+02  5.283200e+01  1.830568e+02
      vertex   1.414109e+02  5.359400e+01  1.814801e+02
      vertex   1.414109e+02  5.283200e+01  1.814801e+02
    endloop
  endfacet
  facet normal -3.285466e-01  0.000000e+00  9.444877e-01
    outer loop
      vertex   1.414109e+02  5.283200e+01  1.814801e+02
      vertex   1.414109e+02  5.359400e+01  1.814801e+02
      vertex   1.349272e+02  5.359400e+01  1.792247e+02
    endloop
  endfacet
  facet normal -3.285466e-01  0.000000e+00  9.444877e-01
    outer loop
      vertex   1.414109e+02  5.283200e+01  1.814801e+02
      vertex   1.349272e+02  5.359400e+01  1.792247e+02
      vertex   1.349272e+02  5.283200e+01  1.792247e+02
    endloop
  endfacet
  facet normal -4.239136e-01  0.000000e+00  9.057027e-01
    outer loop
      vertex   1.349272e+02  5.283200e+01  1.792247e+02
      vertex   1.349272e+02  5.359400e+01  1.792247e+02
      vertex   1.287099e+02  5.359400e+01  1.763147e+02
    endloop
  endfacet
  facet normal -4.239136e-01  0.000000e+00  9.057027e-01
    outer loop
      vertex   1.349272e+02  5.283200e+01  1.792247e+02
      vertex   1.287099e+02  5.359400e+01  1.763147e+02
      vertex   1.287099e+02  5.283200e+01  1.763147e+02
    endloop
  endfacet
  facet normal -5.147924e-01  0.000000e+00  8.573149e-01
    outer loop
      vertex   1.287099e+02  5.283200e+01  1.763147e+02
      vertex   1.287099e+02  5.359400e+01  1.763147e+02
      vertex   1.228247e+02  5.359400e+01  1.727808e+02
    endloop
  endfacet
  facet normal -5.147924e-01  0.000000e+00  8.573149e-01
    outer loop
      vertex   1.287099e+02  5.283200e+01  1.763147e+02
      vertex   1.228247e+02  5.359400e+01  1.727808e+02
      vertex   1.228247e+02  5.283200e+01  1.727808e+02
    endloop
  endfacet
  facet normal -6.002122e-01  0.000000e+00  7.998409e-01
    outer loop
      vertex   1.228247e+02  5.283200e+01  1.727808e+02
      vertex   1.228247e+02  5.359400e+01  1.727808e+02
      vertex   1.173340e+02  5.359400e+01  1.686605e+02
    endloop
  endfacet
  facet normal -6.002122e-01  0.000000e+00  7.998409e-01
    outer loop
      vertex   1.228247e+02  5.283200e+01  1.727808e+02
      vertex   1.173340e+02  5.359400e+01  1.686605e+02
      vertex   1.173340e+02  5.283200e+01  1.686605e+02
    endloop
  endfacet
  facet normal -6.792735e-01  0.000000e+00  7.338852e-01
    outer loop
      vertex   1.173340e+02  5.283200e+01  1.686605e+02
      vertex   1.173340e+02  5.359400e+01  1.686605e+02
      vertex   1.122961e+02  5.359400e+01  1.639975e+02
    endloop
  endfacet
  facet normal -6.792735e-01  0.000000e+00  7.338852e-01
    outer loop
      vertex   1.173340e+02  5.283200e+01  1.686605e+02
      vertex   1.122961e+02  5.359400e+01  1.639975e+02
      vertex   1.122961e+02  5.283200e+01  1.639975e+02
    endloop
  endfacet
  facet normal -7.511353e-01  0.000000e+00  6.601483e-01
    outer loop
      vertex   1.122961e+02  5.283200e+01  1.639975e+02
      vertex   1.122961e+02  5.359400e+01  1.639975e+02
      vertex   1.077644e+02  5.359400e+01  1.588412e+02
    endloop
  endfacet
  facet normal -7.511353e-01  0.000000e+00  6.601483e-01
    outer loop
      vertex   1.122961e+02  5.283200e+01  1.639975e+02
      vertex   1.077644e+02  5.359400e+01  1.588412e+02
      vertex   1.077644e+02  5.283200e+01  1.588412e+02
    endloop
  endfacet
  facet normal -8.150236e-01  0.000000e+00  5.794279e-01
    outer loop
      vertex   1.077644e+02  5.283200e+01  1.588412e+02
      vertex   1.077644e+02  5.359400e+01  1.588412e+02
      vertex   1.037868e+02  5.359400e+01  1.532463e+02
    endloop
  endfacet
  facet normal -8.150236e-01  0.000000e+00  5.794279e-01
    outer loop
      vertex   1.077644e+02  5.283200e+01  1.588412e+02
      vertex   1.037868e+02  5.359400e+01  1.532463e+02
      vertex   1.037868e+02  5.283200e+01  1.532463e+02
    endloop
  endfacet
  facet normal -8.702872e-01  0.000000e+00  4.925445e-01
    outer loop
      vertex   1.037868e+02  5.283200e+01  1.532463e+02
      vertex   1.037868e+02  5.359400e+01  1.532463e+02
      vertex   1.004056e+02  5.359400e+01  1.472720e+02
    endloop
  endfacet
  facet normal -8.702872e-01  0.000000e+00  4.925445e-01
    outer loop
      vertex   1.037868e+02  5.283200e+01  1.532463e+02
      vertex   1.004056e+02  5.359400e+01  1.472720e+02
      vertex   1.004056e+02  5.283200e+01  1.472720e+02
    endloop
  endfacet
  facet normal -9.163183e-01  0.000000e+00  4.004506e-01
    outer loop
      vertex   1.004056e+02  5.283200e+01  1.472720e+02
      vertex   1.004056e+02  5.359400e+01  1.472720e+02
      vertex   9.765665e+01  5.359400e+01  1.409818e+02
    endloop
  endfacet
  facet normal -9.163183e-01  0.000000e+00  4.004506e-01
    outer loop
      vertex   1.004056e+02  5.283200e+01  1.472720e+02
      vertex   9.765665e+01  5.359400e+01  1.409818e+02
      vertex   9.765665e+01  5.283200e+01  1.409818e+02
    endloop
  endfacet
  facet normal -9.526346e-01  0.000000e+00  3.041172e-01
    outer loop
      vertex   9.765665e+01  5.283200e+01  1.409818e+02
      vertex   9.765665e+01  5.359400e+01  1.409818e+02
      vertex   9.556899e+01  5.359400e+01  1.344423e+02
    endloop
  endfacet
  facet normal -9.526346e-01  0.000000e+00  3.041172e-01
    outer loop
      vertex   9.765665e+01  5.283200e+01  1.409818e+02
      vertex   9.556899e+01  5.359400e+01  1.344423e+02
      vertex   9.556899e+01  5.283200e+01  1.344423e+02
    endloop
  endfacet
  facet normal -9.788560e-01  0.000000e+00  2.045507e-01
    outer loop
      vertex   9.556899e+01  5.283200e+01  1.344423e+02
      vertex   9.556899e+01  5.359400e+01  1.344423e+02
      vertex   9.416480e+01  5.359400e+01  1.277227e+02
    endloop
  endfacet
  facet normal -9.788560e-01  0.000000e+00  2.045507e-01
    outer loop
      vertex   9.556899e+01  5.283200e+01  1.344423e+02
      vertex   9.416480e+01  5.359400e+01  1.277227e+02
      vertex   9.416480e+01  5.283200e+01  1.277227e+02
    endloop
  endfacet
  facet normal -9.946999e-01  0.000000e+00  1.028210e-01
    outer loop
      vertex   9.416480e+01  5.283200e+01  1.277227e+02
      vertex   9.416480e+01  5.359400e+01  1.277227e+02
      vertex   9.345897e+01  5.359400e+01  1.208944e+02
    endloop
  endfacet
  facet normal -9.946999e-01  0.000000e+00  1.028210e-01
    outer loop
      vertex   9.416480e+01  5.283200e+01  1.277227e+02
      vertex   9.345897e+01  5.359400e+01  1.208944e+02
      vertex   9.345897e+01  5.283200e+01  1.208944e+02
    endloop
  endfacet
  facet normal -9.996685e-01  0.000000e+00  2.574727e-02
    outer loop
      vertex   9.345897e+01  5.283200e+01  1.208944e+02
      vertex   9.345897e+01  5.359400e+01  1.208944e+02
      vertex   9.337057e+01  5.283200e+01  1.174621e+02
    endloop
  endfacet
  facet normal  0.000000e+00 -1.000000e+00  0.000000e+00
    outer loop
      vertex   9.337057e+01  5.283200e+01  1.174621e+02
      vertex   9.345897e+01  5.283200e+01  1.140297e+02
      vertex   1.600456e+02  5.283200e+01  1.174621e+02
    endloop
  endfacet
  facet normal  0.000000e+00 -1.000000e+00  0.000000e+00
    outer loop
      vertex   9.337057e+01  5.283200e+01  1.174621e+02
      vertex   1.600456e+02  5.283200e+01  1.174621e+02
      vertex   9.345897e+01  5.283200e+01  1.208944e+02
    endloop
  endfacet
  facet normal  0.000000e+00 -1.000000e+00 -0.000000e+00
    outer loop
      vertex   9.765665e+01  5.283200e+01  1.409818e+02
      vertex   9.556899e+01  5.283200e+01  1.344423e+02
      vertex   1.600456e+02  5.283200e+01  1.174621e+02
    endloop
  endfacet
  facet normal  0.000000e+00 -1.000000e+00  0.000000e+00
    outer loop
      vertex   1.600456e+02  5.283200e+01  1.174621e+02
      vertex   9.556899e+01  5.283200e+01  1.344423e+02
      vertex   9.416480e+01  5.283200e+01  1.277227e+02
    endloop
  endfacet
  facet normal  0.000000e+00 -1.000000e+00  0.000000e+00
    outer loop
      vertex   1.600456e+02  5.283200e+01  1.174621e+02
      vertex   9.416480e+01  5.283200e+01  1.277227e+02
      vertex   9.345897e+01  5.283200e+01  1.208944e+02
    endloop
  endfacet
  facet normal  0.000000e+00 -1.000000e+00 -0.000000e+00
    outer loop
      vertex   1.077644e+02  5.283200e+01  1.588412e+02
      vertex   1.037868e+02  5.283200e+01  1.532463e+02
      vertex   1.600456e+02  5.283200e+01  1.174621e+02
    endloop
  endfacet
  facet normal  0.000000e+00 -1.000000e+00  0.000000e+00
    outer loop
      vertex   1.600456e+02  5.283200e+01  1.174621e+02
      vertex   1.037868e+02  5.283200e+01  1.532463e+02
      vertex   1.004056e+02  5.283200e+01  1.472720e+02
    endloop
  endfacet
  facet normal  0.000000e+00 -1.000000e+00  0.000000e+00
    outer loop
      vertex   1.600456e+02  5.283200e+01  1.174621e+02
      vertex   1.004056e+02  5.283200e+01  1.472720e+02
      vertex   9.765665e+01  5.283200e+01  1.409818e+02
    endloop
  endfacet
  facet normal  0.000000e+00 -1.000000e+00 -0.000000e+00
    outer loop
      vertex   1.228247e+02  5.283200e+01  1.727808e+02
      vertex   1.173340e+02  5.283200e+01  1.686605e+02
      vertex   1.600456e+02  5.283200e+01  1.174621e+02
    endloop
  endfacet
  facet normal  0.000000e+00 -1.000000e+00  0.000000e+00
    outer loop
      vertex   1.600456e+02  5.283200e+01  1.174621e+02
      vertex   1.173340e+02  5.283200e+01  1.686605e+02
      vertex   1.122961e+02  5.283200e+01  1.639975e+02
    endloop
  endfacet
  facet normal  0.000000e+00 -1.000000e+00  0.000000e+00
    outer loop
      vertex   1.600456e+02  5.283200e+01  1.174621e+02
      vertex   1.122961e+02  5.283200e+01  1.639975e+02
      vertex   1.077644e+02  5.283200e+01  1.588412e+02
    endloop
  endfacet
  facet normal  0.000000e+00 -1.000000e+00 -0.000000e+00
    outer loop
      vertex   1.414109e+02  5.283200e+01  1.814801e+02
      vertex   1.349272e+02  5.283200e+01  1.792247e+02
      vertex   1.600456e+02  5.283200e+01  1.174621e+02
    endloop
  endfacet
  facet normal  0.000000e+00 -1.000000e+00  0.000000e+00
    outer loop
      vertex   1.600456e+02  5.283200e+01  1.174621e+02
      vertex   1.349272e+02  5.283200e+01  1.792247e+02
      vertex   1.287099e+02  5.283200e+01  1.763147e+02
    endloop
  endfacet
  facet normal  0.000000e+00 -1.000000e+00  0.000000e+00
    outer loop
      vertex   1.600456e+02  5.283200e+01  1.174621e+02
      vertex   1.287099e+02  5.283200e+01  1.763147e+02
      vertex   1.228247e+02  5.283200e+01  1.727808e+02
    endloop
  endfacet
  facet normal  0.000000e+00 -1.000000e+00  0.000000e+00
    outer loop
      vertex   1.617623e+02  5.283200e+01  1.841150e+02
      vertex   1.548999e+02  5.283200e+01  1.839382e+02
      vertex   1.600456e+02  5.283200e+01  1.174621e+02
    endloop
  endfacet
  facet normal  0.000000e+00 -1.000000e+00  0.000000e+00
    outer loop
      vertex   1.600456e+02  5.283200e+01  1.174621e+02
      vertex   1.548999e+02  5.283200e+01  1.839382e+02
      vertex   1.480920e+02  5.283200e+01  1.830568e+02
    endloop
  endfacet
  facet normal  0.000000e+00 -1.000000e+00  0.000000e+00
    outer loop
      vertex   1.600456e+02  5.283200e+01  1.174621e+02
      vertex   1.480920e+02  5.283200e+01  1.830568e+02
      vertex   1.414109e+02  5.283200e+01  1.814801e+02
    endloop
  endfacet
  facet normal -0.000000e+00 -1.000000e+00  0.000000e+00
    outer loop
      vertex   1.819511e+02  5.283200e+01  1.804359e+02
      vertex   1.753600e+02  5.283200e+01  1.823545e+02
      vertex   1.600456e+02  5.283200e+01  1.174621e+02
    endloop
  endfacet
  facet normal  0.000000e+00 -1.000000e+00  0.000000e+00
    outer loop
      vertex   1.600456e+02  5.283200e+01  1.174621e+02
      vertex   1.753600e+02  5.283200e+01  1.823545e+02
      vertex   1.686065e+02  5.283200e+01  1.835852e+02
    endloop
  endfacet
  facet normal  0.000000e+00 -1.000000e+00  0.000000e+00
    outer loop
      vertex   1.600456e+02  5.283200e+01  1.174621e+02
      vertex   1.686065e+02  5.283200e+01  1.835852e+02
      vertex   1.617623e+02  5.283200e+01  1.841150e+02
    endloop
  endfacet
  facet normal -0.000000e+00 -1.000000e+00  0.000000e+00
    outer loop
      vertex   2.000648e+02  5.283200e+01  1.707914e+02
      vertex   1.943694e+02  5.283200e+01  1.746235e+02
      vertex   1.600456e+02  5.283200e+01  1.174621e+02
    endloop
  endfacet
  facet normal  0.000000e+00 -1.000000e+00  0.000000e+00
    outer loop
      vertex   1.600456e+02  5.283200e+01  1.174621e+02
      vertex   1.943694e+02  5.283200e+01  1.746235e+02
      vertex   1.883101e+02  5.283200e+01  1.778498e+02
    endloop
  endfacet
  facet normal  0.000000e+00 -1.000000e+00  0.000000e+00
    outer loop
      vertex   1.600456e+02  5.283200e+01  1.174621e+02
      vertex   1.883101e+02  5.283200e+01  1.778498e+02
      vertex   1.819511e+02  5.283200e+01  1.804359e+02
    endloop
  endfacet
  facet normal -0.000000e+00 -1.000000e+00  0.000000e+00
    outer loop
      vertex   2.143876e+02  5.283200e+01  1.560950e+02
      vertex   2.101273e+02  5.283200e+01  1.614777e+02
      vertex   1.600456e+02  5.283200e+01  1.174621e+02
    endloop
  endfacet
  facet normal  0.000000e+00 -1.000000e+00  0.000000e+00
    outer loop
      vertex   1.600456e+02  5.283200e+01  1.174621e+02
      vertex   2.101273e+02  5.283200e+01  1.614777e+02
      vertex   2.053361e+02  5.283200e+01  1.663939e+02
    endloop
  endfacet
  facet normal  0.000000e+00 -1.000000e+00  0.000000e+00
    outer loop
      vertex   1.600456e+02  5.283200e+01  1.174621e+02
      vertex   2.053361e+02  5.283200e+01  1.663939e+02
      vertex   2.000648e+02  5.283200e+01  1.707914e+02
    endloop
  endfacet
  facet normal -0.000000e+00 -1.000000e+00  0.000000e+00
    outer loop
      vertex   2.235625e+02  5.283200e+01  1.377389e+02
      vertex   2.211410e+02  5.283200e+01  1.441623e+02
      vertex   1.600456e+02  5.283200e+01  1.174621e+02
    endloop
  endfacet
  facet normal  0.000000e+00 -1.000000e+00  0.000000e+00
    outer loop
      vertex   1.600456e+02  5.283200e+01  1.174621e+02
      vertex   2.211410e+02  5.283200e+01  1.441623e+02
      vertex   2.180718e+02  5.283200e+01  1.503027e+02
    endloop
  endfacet
  facet normal  0.000000e+00 -1.000000e+00  0.000000e+00
    outer loop
      vertex   1.600456e+02  5.283200e+01  1.174621e+02
      vertex   2.180718e+02  5.283200e+01  1.503027e+02
      vertex   2.143876e+02  5.283200e+01  1.560950e+02
    endloop
  endfacet
  facet normal  0.000000e+00 -1.000000e+00  0.000000e+00
    outer loop
      vertex   2.267206e+02  5.283200e+01  1.174621e+02
      vertex   2.263672e+02  5.283200e+01  1.243177e+02
      vertex   1.600456e+02  5.283200e+01  1.174621e+02
    endloop
  endfacet
  facet normal  0.000000e+00 -1.000000e+00  0.000000e+00
    outer loop
      vertex   1.600456e+02  5.283200e+01  1.174621e+02
      vertex   2.263672e+02  5.283200e+01  1.243177e+02
      vertex   2.253108e+02  5.283200e+01  1.311006e+02
    endloop
  endfacet
  facet normal  0.000000e+00 -1.000000e+00  0.000000e+00
    outer loop
      vertex   1.600456e+02  5.283200e+01  1.174621e+02
      vertex   2.253108e+02  5.283200e+01  1.311006e+02
      vertex   2.235625e+02  5.283200e+01  1.377389e+02
    endloop
  endfacet
  facet normal  0.000000e+00 -1.000000e+00  0.000000e+00
    outer loop
      vertex   2.235625e+02  5.283200e+01  9.718522e+01
      vertex   2.253108e+02  5.283200e+01  1.038236e+02
      vertex   1.600456e+02  5.283200e+01  1.174621e+02
    endloop
  endfacet
  facet normal  0.000000e+00 -1.000000e+00  0.000000e+00
    outer loop
      vertex   1.600456e+02  5.283200e+01  1.174621e+02
      vertex   2.253108e+02  5.283200e+01  1.038236e+02
      vertex   2.263672e+02  5.283200e+01  1.106065e+02
    endloop
  endfacet
  facet normal  0.000000e+00 -1.000000e+00  0.000000e+00
    outer loop
      vertex   1.600456e+02  5.283200e+01  1.174621e+02
      vertex   2.263672e+02  5.283200e+01  1.106065e+02
      vertex   2.267206e+02  5.283200e+01  1.174621e+02
    endloop
  endfacet
  facet normal  0.000000e+00 -1.000000e+00  0.000000e+00
    outer loop
      vertex   2.143876e+02  5.283200e+01  7.882917e+01
      vertex   2.180718e+02  5.283200e+01  8.462143e+01
      vertex   1.600456e+02  5.283200e+01  1.174621e+02
    endloop
  endfacet
  facet normal  0.000000e+00 -1.000000e+00  0.000000e+00
    outer loop
      vertex   1.600456e+02  5.283200e+01  1.174621e+02
      vertex   2.180718e+02  5.283200e+01  8.462143e+01
      vertex   2.211410e+02  5.283200e+01  9.076181e+01
    endloop
  endfacet
  facet normal  0.000000e+00 -1.000000e+00  0.000000e+00
    outer loop
      vertex   1.600456e+02  5.283200e+01  1.174621e+02
      vertex   2.211410e+02  5.283200e+01  9.076181e+01
      vertex   2.235625e+02  5.283200e+01  9.718522e+01
    endloop
  endfacet
  facet normal  0.000000e+00 -1.000000e+00  0.000000e+00
    outer loop
      vertex   2.000648e+02  5.283200e+01  6.413280e+01
      vertex   2.053361e+02  5.283200e+01  6.853027e+01
      vertex   1.600456e+02  5.283200e+01  1.174621e+02
    endloop
  endfacet
  facet normal  0.000000e+00 -1.000000e+00  0.000000e+00
    outer loop
      vertex   1.600456e+02  5.283200e+01  1.174621e+02
      vertex   2.053361e+02  5.283200e+01  6.853027e+01
      vertex   2.101273e+02  5.283200e+01  7.344643e+01
    endloop
  endfacet
  facet normal  0.000000e+00 -1.000000e+00  0.000000e+00
    outer loop
      vertex   1.600456e+02  5.283200e+01  1.174621e+02
      vertex   2.101273e+02  5.283200e+01  7.344643e+01
      vertex   2.143876e+02  5.283200e+01  7.882917e+01
    endloop
  endfacet
  facet normal  0.000000e+00 -1.000000e+00  0.000000e+00
    outer loop
      vertex   1.819511e+02  5.283200e+01  5.448826e+01
      vertex   1.883101e+02  5.283200e+01  5.707438e+01
      vertex   1.600456e+02  5.283200e+01  1.174621e+02
    endloop
  endfacet
  facet normal  0.000000e+00 -1.000000e+00  0.000000e+00
    outer loop
      vertex   1.600456e+02  5.283200e+01  1.174621e+02
      vertex   1.883101e+02  5.283200e+01  5.707438e+01
      vertex   1.943694e+02  5.283200e+01  6.030062e+01
    endloop
  endfacet
  facet normal  0.000000e+00 -1.000000e+00  0.000000e+00
    outer loop
      vertex   1.600456e+02  5.283200e+01  1.174621e+02
      vertex   1.943694e+02  5.283200e+01  6.030062e+01
      vertex   2.000648e+02  5.283200e+01  6.413280e+01
    endloop
  endfacet
  facet normal  0.000000e+00 -1.000000e+00  0.000000e+00
    outer loop
      vertex   1.617623e+02  5.283200e+01  5.080918e+01
      vertex   1.686065e+02  5.283200e+01  5.133897e+01
      vertex   1.600456e+02  5.283200e+01  1.174621e+02
    endloop
  endfacet
  facet normal  0.000000e+00 -1.000000e+00  0.000000e+00
    outer loop
      vertex   1.600456e+02  5.283200e+01  1.174621e+02
      vertex   1.686065e+02  5.283200e+01  5.133897e+01
      vertex   1.753600e+02  5.283200e+01  5.256967e+01
    endloop
  endfacet
  facet normal  0.000000e+00 -1.000000e+00  0.000000e+00
    outer loop
      vertex   1.600456e+02  5.283200e+01  1.174621e+02
      vertex   1.753600e+02  5.283200e+01  5.256967e+01
      vertex   1.819511e+02  5.283200e+01  5.448826e+01
    endloop
  endfacet
  facet normal  0.000000e+00 -1.000000e+00  0.000000e+00
    outer loop
      vertex   1.414109e+02  5.283200e+01  5.344408e+01
      vertex   1.480920e+02  5.283200e+01  5.186735e+01
      vertex   1.600456e+02  5.283200e+01  1.174621e+02
    endloop
  endfacet
  facet normal  0.000000e+00 -1.000000e+00  0.000000e+00
    outer loop
      vertex   1.600456e+02  5.283200e+01  1.174621e+02
      vertex   1.480920e+02  5.283200e+01  5.186735e+01
      vertex   1.548999e+02  5.283200e+01  5.098593e+01
    endloop
  endfacet
  facet normal  0.000000e+00 -1.000000e+00 -0.000000e+00
    outer loop
      vertex   1.600456e+02  5.283200e+01  1.174621e+02
      vertex   1.548999e+02  5.283200e+01  5.098593e+01
      vertex   1.617623e+02  5.283200e+01  5.080918e+01
    endloop
  endfacet
  facet normal  0.000000e+00 -1.000000e+00  0.000000e+00
    outer loop
      vertex   1.228247e+02  5.283200e+01  6.214336e+01
      vertex   1.287099e+02  5.283200e+01  5.860947e+01
      vertex   1.600456e+02  5.283200e+01  1.174621e+02
    endloop
  endfacet
  facet normal  0.000000e+00 -1.000000e+00  0.000000e+00
    outer loop
      vertex   1.600456e+02  5.283200e+01  1.174621e+02
      vertex   1.287099e+02  5.283200e+01  5.860947e+01
      vertex   1.349272e+02  5.283200e+01  5.569943e+01
    endloop
  endfacet
  facet normal  0.000000e+00 -1.000000e+00  0.000000e+00
    outer loop
      vertex   1.600456e+02  5.283200e+01  1.174621e+02
      vertex   1.349272e+02  5.283200e+01  5.569943e+01
      vertex   1.414109e+02  5.283200e+01  5.344408e+01
    endloop
  endfacet
  facet normal  0.000000e+00 -1.000000e+00  0.000000e+00
    outer loop
      vertex   1.077644e+02  5.283200e+01  7.608294e+01
      vertex   1.122961e+02  5.283200e+01  7.092665e+01
      vertex   1.600456e+02  5.283200e+01  1.174621e+02
    endloop
  endfacet
  facet normal  0.000000e+00 -1.000000e+00  0.000000e+00
    outer loop
      vertex   1.600456e+02  5.283200e+01  1.174621e+02
      vertex   1.122961e+02  5.283200e+01  7.092665e+01
      vertex   1.173340e+02  5.283200e+01  6.626365e+01
    endloop
  endfacet
  facet normal  0.000000e+00 -1.000000e+00  0.000000e+00
    outer loop
      vertex   1.600456e+02  5.283200e+01  1.174621e+02
      vertex   1.173340e+02  5.283200e+01  6.626365e+01
      vertex   1.228247e+02  5.283200e+01  6.214336e+01
    endloop
  endfacet
  facet normal  0.000000e+00 -1.000000e+00  0.000000e+00
    outer loop
      vertex   9.765665e+01  5.283200e+01  9.394233e+01
      vertex   1.004056e+02  5.283200e+01  8.765210e+01
      vertex   1.600456e+02  5.283200e+01  1.174621e+02
    endloop
  endfacet
  facet normal  0.000000e+00 -1.000000e+00  0.000000e+00
    outer loop
      vertex   1.600456e+02  5.283200e+01  1.174621e+02
      vertex   1.004056e+02  5.283200e+01  8.765210e+01
      vertex   1.037868e+02  5.283200e+01  8.167786e+01
    endloop
  endfacet
  facet normal  0.000000e+00 -1.000000e+00  0.000000e+00
    outer loop
      vertex   1.600456e+02  5.283200e+01  1.174621e+02
      vertex   1.037868e+02  5.283200e+01  8.167786e+01
      vertex   1.077644e+02  5.283200e+01  7.608294e+01
    endloop
  endfacet
  facet normal  0.000000e+00 -1.000000e+00  0.000000e+00
    outer loop
      vertex   9.345897e+01  5.283200e+01  1.140297e+02
      vertex   9.416480e+01  5.283200e+01  1.072014e+02
      vertex   1.600456e+02  5.283200e+01  1.174621e+02
    endloop
  endfacet
  facet normal  0.000000e+00 -1.000000e+00  0.000000e+00
    outer loop
      vertex   1.600456e+02  5.283200e+01  1.174621e+02
      vertex   9.416480e+01  5.283200e+01  1.072014e+02
      vertex   9.556899e+01  5.283200e+01  1.004819e+02
    endloop
  endfacet
  facet normal  0.000000e+00 -1.000000e+00  0.000000e+00
    outer loop
      vertex   1.600456e+02  5.283200e+01  1.174621e+02
      vertex   9.556899e+01  5.283200e+01  1.004819e+02
      vertex   9.765665e+01  5.283200e+01  9.394233e+01
    endloop
  endfacet
endsolid vcg
