solid STL generated by MeshLab
  facet normal  9.996685e-01  0.000000e+00  2.574870e-02
    outer loop
      vertex   2.234614e+02  5.918200e+01  1.207310e+02
      vertex   2.235456e+02  5.918200e+01  1.174621e+02
      vertex   2.235456e+02  6.070600e+01  1.174621e+02
    endloop
  endfacet
  facet normal  9.996685e-01  0.000000e+00 -2.574876e-02
    outer loop
      vertex   2.235456e+02  6.070600e+01  1.174621e+02
      vertex   2.235456e+02  5.918200e+01  1.174621e+02
      vertex   2.234614e+02  6.070600e+01  1.141932e+02
    endloop
  endfacet
  facet normal  9.996685e-01  0.000000e+00 -2.574876e-02
    outer loop
      vertex   2.235456e+02  5.918200e+01  1.174621e+02
      vertex   2.234614e+02  5.918200e+01  1.141932e+02
      vertex   2.234614e+02  6.070600e+01  1.141932e+02
    endloop
  endfacet
  facet normal  9.946988e-01  0.000000e+00 -1.028322e-01
    outer loop
      vertex   2.234614e+02  6.070600e+01  1.141932e+02
      vertex   2.234614e+02  5.918200e+01  1.141932e+02
      vertex   2.227891e+02  5.918200e+01  1.076900e+02
    endloop
  endfacet
  facet normal  9.946988e-01  0.000000e+00 -1.028322e-01
    outer loop
      vertex   2.234614e+02  6.070600e+01  1.141932e+02
      vertex   2.227891e+02  5.918200e+01  1.076900e+02
      vertex   2.227891e+02  6.070600e+01  1.076900e+02
    endloop
  endfacet
  facet normal  9.788561e-01  0.000000e+00 -2.045501e-01
    outer loop
      vertex   2.227891e+02  6.070600e+01  1.076900e+02
      vertex   2.227891e+02  5.918200e+01  1.076900e+02
      vertex   2.214518e+02  5.918200e+01  1.012905e+02
    endloop
  endfacet
  facet normal  9.788561e-01  0.000000e+00 -2.045501e-01
    outer loop
      vertex   2.227891e+02  6.070600e+01  1.076900e+02
      vertex   2.214518e+02  5.918200e+01  1.012905e+02
      vertex   2.214518e+02  6.070600e+01  1.012905e+02
    endloop
  endfacet
  facet normal  9.526375e-01  0.000000e+00 -3.041079e-01
    outer loop
      vertex   2.214518e+02  6.070600e+01  1.012905e+02
      vertex   2.214518e+02  5.918200e+01  1.012905e+02
      vertex   2.194636e+02  5.918200e+01  9.506232e+01
    endloop
  endfacet
  facet normal  9.526375e-01  0.000000e+00 -3.041079e-01
    outer loop
      vertex   2.214518e+02  6.070600e+01  1.012905e+02
      vertex   2.194636e+02  5.918200e+01  9.506232e+01
      vertex   2.194636e+02  6.070600e+01  9.506232e+01
    endloop
  endfacet
  facet normal  9.163170e-01  0.000000e+00 -4.004538e-01
    outer loop
      vertex   2.194636e+02  6.070600e+01  9.506232e+01
      vertex   2.194636e+02  5.918200e+01  9.506232e+01
      vertex   2.168455e+02  5.918200e+01  8.907162e+01
    endloop
  endfacet
  facet normal  9.163170e-01  0.000000e+00 -4.004538e-01
    outer loop
      vertex   2.194636e+02  6.070600e+01  9.506232e+01
      vertex   2.168455e+02  5.918200e+01  8.907162e+01
      vertex   2.168455e+02  6.070600e+01  8.907162e+01
    endloop
  endfacet
  facet normal  8.702840e-01  0.000000e+00 -4.925502e-01
    outer loop
      vertex   2.168455e+02  6.070600e+01  8.907162e+01
      vertex   2.168455e+02  5.918200e+01  8.907162e+01
      vertex   2.136253e+02  5.918200e+01  8.338187e+01
    endloop
  endfacet
  facet normal  8.702840e-01  0.000000e+00 -4.925502e-01
    outer loop
      vertex   2.168455e+02  6.070600e+01  8.907162e+01
      vertex   2.136253e+02  5.918200e+01  8.338187e+01
      vertex   2.136253e+02  6.070600e+01  8.338187e+01
    endloop
  endfacet
  facet normal  8.150306e-01  0.000000e+00 -5.794179e-01
    outer loop
      vertex   2.136253e+02  6.070600e+01  8.338187e+01
      vertex   2.136253e+02  5.918200e+01  8.338187e+01
      vertex   2.098372e+02  5.918200e+01  7.805338e+01
    endloop
  endfacet
  facet normal  8.150306e-01  0.000000e+00 -5.794179e-01
    outer loop
      vertex   2.136253e+02  6.070600e+01  8.338187e+01
      vertex   2.098372e+02  5.918200e+01  7.805338e+01
      vertex   2.098372e+02  6.070600e+01  7.805338e+01
    endloop
  endfacet
  facet normal  7.511279e-01  0.000000e+00 -6.601567e-01
    outer loop
      vertex   2.098372e+02  6.070600e+01  7.805338e+01
      vertex   2.098372e+02  5.918200e+01  7.805338e+01
      vertex   2.055212e+02  5.918200e+01  7.314262e+01
    endloop
  endfacet
  facet normal  7.511279e-01  0.000000e+00 -6.601567e-01
    outer loop
      vertex   2.098372e+02  6.070600e+01  7.805338e+01
      vertex   2.055212e+02  5.918200e+01  7.314262e+01
      vertex   2.055212e+02  6.070600e+01  7.314262e+01
    endloop
  endfacet
  facet normal  6.792734e-01  0.000000e+00 -7.338852e-01
    outer loop
      vertex   2.055212e+02  6.070600e+01  7.314262e+01
      vertex   2.055212e+02  5.918200e+01  7.314262e+01
      vertex   2.007232e+02  5.918200e+01  6.870167e+01
    endloop
  endfacet
  facet normal  6.792734e-01  0.000000e+00 -7.338852e-01
    outer loop
      vertex   2.055212e+02  6.070600e+01  7.314262e+01
      vertex   2.007232e+02  5.918200e+01  6.870167e+01
      vertex   2.007232e+02  6.070600e+01  6.870167e+01
    endloop
  endfacet
  facet normal  6.002132e-01  0.000000e+00 -7.998401e-01
    outer loop
      vertex   2.007232e+02  6.070600e+01  6.870167e+01
      vertex   2.007232e+02  5.918200e+01  6.870167e+01
      vertex   1.954940e+02  5.918200e+01  6.477759e+01
    endloop
  endfacet
  facet normal  6.002132e-01  0.000000e+00 -7.998401e-01
    outer loop
      vertex   2.007232e+02  6.070600e+01  6.870167e+01
      vertex   1.954940e+02  5.918200e+01  6.477759e+01
      vertex   1.954940e+02  6.070600e+01  6.477759e+01
    endloop
  endfacet
  facet normal  5.147969e-01  0.000000e+00 -8.573123e-01
    outer loop
      vertex   1.954940e+02  6.070600e+01  6.477759e+01
      vertex   1.954940e+02  5.918200e+01  6.477759e+01
      vertex   1.898891e+02  5.918200e+01  6.141197e+01
    endloop
  endfacet
  facet normal  5.147969e-01  0.000000e+00 -8.573123e-01
    outer loop
      vertex   1.954940e+02  6.070600e+01  6.477759e+01
      vertex   1.898891e+02  5.918200e+01  6.141197e+01
      vertex   1.898891e+02  6.070600e+01  6.141197e+01
    endloop
  endfacet
  facet normal  4.239135e-01  0.000000e+00 -9.057027e-01
    outer loop
      vertex   1.898891e+02  6.070600e+01  6.141197e+01
      vertex   1.898891e+02  5.918200e+01  6.141197e+01
      vertex   1.839678e+02  5.918200e+01  5.864051e+01
    endloop
  endfacet
  facet normal  4.239135e-01  0.000000e+00 -9.057027e-01
    outer loop
      vertex   1.898891e+02  6.070600e+01  6.141197e+01
      vertex   1.839678e+02  5.918200e+01  5.864051e+01
      vertex   1.839678e+02  6.070600e+01  5.864051e+01
    endloop
  endfacet
  facet normal  3.285416e-01  0.000000e+00 -9.444895e-01
    outer loop
      vertex   1.839678e+02  6.070600e+01  5.864051e+01
      vertex   1.839678e+02  5.918200e+01  5.864051e+01
      vertex   1.777929e+02  5.918200e+01  5.649256e+01
    endloop
  endfacet
  facet normal  3.285416e-01  0.000000e+00 -9.444895e-01
    outer loop
      vertex   1.839678e+02  6.070600e+01  5.864051e+01
      vertex   1.777929e+02  5.918200e+01  5.649256e+01
      vertex   1.777929e+02  6.070600e+01  5.649256e+01
    endloop
  endfacet
  facet normal  2.296882e-01  0.000000e+00 -9.732643e-01
    outer loop
      vertex   1.777929e+02  6.070600e+01  5.649256e+01
      vertex   1.777929e+02  5.918200e+01  5.649256e+01
      vertex   1.714299e+02  5.918200e+01  5.499091e+01
    endloop
  endfacet
  facet normal  2.296882e-01  0.000000e+00 -9.732643e-01
    outer loop
      vertex   1.777929e+02  6.070600e+01  5.649256e+01
      vertex   1.714299e+02  5.918200e+01  5.499091e+01
      vertex   1.714299e+02  6.070600e+01  5.499091e+01
    endloop
  endfacet
  facet normal  1.283992e-01  0.000000e+00 -9.917225e-01
    outer loop
      vertex   1.714299e+02  6.070600e+01  5.499091e+01
      vertex   1.714299e+02  5.918200e+01  5.499091e+01
      vertex   1.649462e+02  5.918200e+01  5.415146e+01
    endloop
  endfacet
  facet normal  1.283992e-01  0.000000e+00 -9.917225e-01
    outer loop
      vertex   1.714299e+02  6.070600e+01  5.499091e+01
      vertex   1.649462e+02  5.918200e+01  5.415146e+01
      vertex   1.649462e+02  6.070600e+01  5.415146e+01
    endloop
  endfacet
  facet normal  2.574692e-02  0.000000e+00 -9.996684e-01
    outer loop
      vertex   1.649462e+02  6.070600e+01  5.415146e+01
      vertex   1.649462e+02  5.918200e+01  5.415146e+01
      vertex   1.584106e+02  5.918200e+01  5.398313e+01
    endloop
  endfacet
  facet normal  2.574692e-02  0.000000e+00 -9.996684e-01
    outer loop
      vertex   1.649462e+02  6.070600e+01  5.415146e+01
      vertex   1.584106e+02  5.918200e+01  5.398313e+01
      vertex   1.584106e+02  6.070600e+01  5.398313e+01
    endloop
  endfacet
  facet normal -7.717392e-02 -0.000000e+00 -9.970176e-01
    outer loop
      vertex   1.584106e+02  6.070600e+01  5.398313e+01
      vertex   1.584106e+02  5.918200e+01  5.398313e+01
      vertex   1.518923e+02  5.918200e+01  5.448768e+01
    endloop
  endfacet
  facet normal -7.717392e-02  0.000000e+00 -9.970176e-01
    outer loop
      vertex   1.584106e+02  6.070600e+01  5.398313e+01
      vertex   1.518923e+02  5.918200e+01  5.448768e+01
      vertex   1.518923e+02  6.070600e+01  5.448768e+01
    endloop
  endfacet
  facet normal -1.792815e-01 -0.000000e+00 -9.837978e-01
    outer loop
      vertex   1.518923e+02  6.070600e+01  5.448768e+01
      vertex   1.518923e+02  5.918200e+01  5.448768e+01
      vertex   1.454604e+02  5.918200e+01  5.565979e+01
    endloop
  endfacet
  facet normal -1.792815e-01  0.000000e+00 -9.837978e-01
    outer loop
      vertex   1.518923e+02  6.070600e+01  5.448768e+01
      vertex   1.454604e+02  5.918200e+01  5.565979e+01
      vertex   1.454604e+02  6.070600e+01  5.565979e+01
    endloop
  endfacet
  facet normal -2.794844e-01 -0.000000e+00 -9.601502e-01
    outer loop
      vertex   1.454604e+02  6.070600e+01  5.565979e+01
      vertex   1.454604e+02  5.918200e+01  5.565979e+01
      vertex   1.391831e+02  5.918200e+01  5.748701e+01
    endloop
  endfacet
  facet normal -2.794844e-01  0.000000e+00 -9.601502e-01
    outer loop
      vertex   1.454604e+02  6.070600e+01  5.565979e+01
      vertex   1.391831e+02  5.918200e+01  5.748701e+01
      vertex   1.391831e+02  6.070600e+01  5.748701e+01
    endloop
  endfacet
  facet normal -3.767285e-01 -0.000000e+00 -9.263237e-01
    outer loop
      vertex   1.391831e+02  6.070600e+01  5.748701e+01
      vertex   1.391831e+02  5.918200e+01  5.748701e+01
      vertex   1.331270e+02  5.918200e+01  5.994998e+01
    endloop
  endfacet
  facet normal -3.767285e-01  0.000000e+00 -9.263237e-01
    outer loop
      vertex   1.391831e+02  6.070600e+01  5.748701e+01
      vertex   1.331270e+02  5.918200e+01  5.994998e+01
      vertex   1.331270e+02  6.070600e+01  5.994998e+01
    endloop
  endfacet
  facet normal -4.699758e-01 -0.000000e+00 -8.826793e-01
    outer loop
      vertex   1.331270e+02  6.070600e+01  5.994998e+01
      vertex   1.331270e+02  5.918200e+01  5.994998e+01
      vertex   1.273562e+02  5.918200e+01  6.302260e+01
    endloop
  endfacet
  facet normal -4.699758e-01  0.000000e+00 -8.826793e-01
    outer loop
      vertex   1.331270e+02  6.070600e+01  5.994998e+01
      vertex   1.273562e+02  5.918200e+01  6.302260e+01
      vertex   1.273562e+02  6.070600e+01  6.302260e+01
    endloop
  endfacet
  facet normal -5.582483e-01 -0.000000e+00 -8.296739e-01
    outer loop
      vertex   1.273562e+02  6.070600e+01  6.302260e+01
      vertex   1.273562e+02  5.918200e+01  6.302260e+01
      vertex   1.219320e+02  5.918200e+01  6.667229e+01
    endloop
  endfacet
  facet normal -5.582483e-01  0.000000e+00 -8.296739e-01
    outer loop
      vertex   1.273562e+02  6.070600e+01  6.302260e+01
      vertex   1.219320e+02  5.918200e+01  6.667229e+01
      vertex   1.219320e+02  6.070600e+01  6.667229e+01
    endloop
  endfacet
  facet normal -6.405894e-01 -0.000000e+00 -7.678836e-01
    outer loop
      vertex   1.219320e+02  6.070600e+01  6.667229e+01
      vertex   1.219320e+02  5.918200e+01  6.667229e+01
      vertex   1.169117e+02  5.918200e+01  7.086036e+01
    endloop
  endfacet
  facet normal -6.405894e-01  0.000000e+00 -7.678836e-01
    outer loop
      vertex   1.219320e+02  6.070600e+01  6.667229e+01
      vertex   1.169117e+02  5.918200e+01  7.086036e+01
      vertex   1.169117e+02  6.070600e+01  7.086036e+01
    endloop
  endfacet
  facet normal -7.161540e-01 -0.000000e+00 -6.979423e-01
    outer loop
      vertex   1.169117e+02  6.070600e+01  7.086036e+01
      vertex   1.169117e+02  5.918200e+01  7.086036e+01
      vertex   1.123487e+02  5.918200e+01  7.554242e+01
    endloop
  endfacet
  facet normal -7.161540e-01  0.000000e+00 -6.979423e-01
    outer loop
      vertex   1.169117e+02  6.070600e+01  7.086036e+01
      vertex   1.123487e+02  5.918200e+01  7.554242e+01
      vertex   1.123487e+02  6.070600e+01  7.554242e+01
    endloop
  endfacet
  facet normal -7.841211e-01 -0.000000e+00 -6.206079e-01
    outer loop
      vertex   1.123487e+02  6.070600e+01  7.554242e+01
      vertex   1.123487e+02  5.918200e+01  7.554242e+01
      vertex   1.082913e+02  5.918200e+01  8.066884e+01
    endloop
  endfacet
  facet normal -7.841211e-01  0.000000e+00 -6.206079e-01
    outer loop
      vertex   1.123487e+02  6.070600e+01  7.554242e+01
      vertex   1.082913e+02  5.918200e+01  8.066884e+01
      vertex   1.082913e+02  6.070600e+01  8.066884e+01
    endloop
  endfacet
  facet normal -8.437697e-01 -0.000000e+00 -5.367054e-01
    outer loop
      vertex   1.082913e+02  6.070600e+01  8.066884e+01
      vertex   1.082913e+02  5.918200e+01  8.066884e+01
      vertex   1.047824e+02  5.918200e+01  8.618527e+01
    endloop
  endfacet
  facet normal -8.437697e-01  0.000000e+00 -5.367054e-01
    outer loop
      vertex   1.082913e+02  6.070600e+01  8.066884e+01
      vertex   1.047824e+02  5.918200e+01  8.618527e+01
      vertex   1.047824e+02  6.070600e+01  8.618527e+01
    endloop
  endfacet
  facet normal -8.944876e-01 -0.000000e+00 -4.470927e-01
    outer loop
      vertex   1.047824e+02  6.070600e+01  8.618527e+01
      vertex   1.047824e+02  5.918200e+01  8.618527e+01
      vertex   1.018594e+02  5.918200e+01  9.203326e+01
    endloop
  endfacet
  facet normal -8.944876e-01  0.000000e+00 -4.470927e-01
    outer loop
      vertex   1.047824e+02  6.070600e+01  8.618527e+01
      vertex   1.018594e+02  5.918200e+01  9.203326e+01
      vertex   1.018594e+02  6.070600e+01  9.203326e+01
    endloop
  endfacet
  facet normal -9.357193e-01 -0.000000e+00 -3.527457e-01
    outer loop
      vertex   1.018594e+02  6.070600e+01  9.203326e+01
      vertex   1.018594e+02  5.918200e+01  9.203326e+01
      vertex   9.955322e+01  5.918200e+01  9.815079e+01
    endloop
  endfacet
  facet normal -9.357193e-01  0.000000e+00 -3.527457e-01
    outer loop
      vertex   1.018594e+02  6.070600e+01  9.203326e+01
      vertex   9.955322e+01  5.918200e+01  9.815079e+01
      vertex   9.955322e+01  6.070600e+01  9.815079e+01
    endloop
  endfacet
  facet normal -9.670274e-01 -0.000000e+00 -2.546726e-01
    outer loop
      vertex   9.955322e+01  6.070600e+01  9.815079e+01
      vertex   9.955322e+01  5.918200e+01  9.815079e+01
      vertex   9.788823e+01  5.918200e+01  1.044730e+02
    endloop
  endfacet
  facet normal -9.670274e-01  0.000000e+00 -2.546726e-01
    outer loop
      vertex   9.955322e+01  6.070600e+01  9.815079e+01
      vertex   9.788823e+01  5.918200e+01  1.044730e+02
      vertex   9.788823e+01  6.070600e+01  1.044730e+02
    endloop
  endfacet
  facet normal -9.880877e-01 -0.000000e+00 -1.538918e-01
    outer loop
      vertex   9.788823e+01  6.070600e+01  1.044730e+02
      vertex   9.788823e+01  5.918200e+01  1.044730e+02
      vertex   9.688212e+01  5.918200e+01  1.109329e+02
    endloop
  endfacet
  facet normal -9.880877e-01  0.000000e+00 -1.538918e-01
    outer loop
      vertex   9.788823e+01  6.070600e+01  1.044730e+02
      vertex   9.688212e+01  5.918200e+01  1.109329e+02
      vertex   9.688212e+01  6.070600e+01  1.109329e+02
    endloop
  endfacet
  facet normal -9.986742e-01 -0.000000e+00 -5.147788e-02
    outer loop
      vertex   9.688212e+01  6.070600e+01  1.109329e+02
      vertex   9.688212e+01  5.918200e+01  1.109329e+02
      vertex   9.654556e+01  5.918200e+01  1.174621e+02
    endloop
  endfacet
  facet normal -9.986742e-01  0.000000e+00 -5.147788e-02
    outer loop
      vertex   9.688212e+01  6.070600e+01  1.109329e+02
      vertex   9.654556e+01  5.918200e+01  1.174621e+02
      vertex   9.654556e+01  6.070600e+01  1.174621e+02
    endloop
  endfacet
  facet normal -9.986742e-01  0.000000e+00  5.147860e-02
    outer loop
      vertex   9.654556e+01  6.070600e+01  1.174621e+02
      vertex   9.654556e+01  5.918200e+01  1.174621e+02
      vertex   9.688212e+01  5.918200e+01  1.239912e+02
    endloop
  endfacet
  facet normal -9.986742e-01  0.000000e+00  5.147860e-02
    outer loop
      vertex   9.654556e+01  6.070600e+01  1.174621e+02
      vertex   9.688212e+01  5.918200e+01  1.239912e+02
      vertex   9.688212e+01  6.070600e+01  1.239912e+02
    endloop
  endfacet
  facet normal -9.880877e-01  0.000000e+00  1.538920e-01
    outer loop
      vertex   9.688212e+01  6.070600e+01  1.239912e+02
      vertex   9.688212e+01  5.918200e+01  1.239912e+02
      vertex   9.788823e+01  5.918200e+01  1.304511e+02
    endloop
  endfacet
  facet normal -9.880877e-01  0.000000e+00  1.538920e-01
    outer loop
      vertex   9.688212e+01  6.070600e+01  1.239912e+02
      vertex   9.788823e+01  5.918200e+01  1.304511e+02
      vertex   9.788823e+01  6.070600e+01  1.304511e+02
    endloop
  endfacet
  facet normal -9.670284e-01  0.000000e+00  2.546688e-01
    outer loop
      vertex   9.788823e+01  6.070600e+01  1.304511e+02
      vertex   9.788823e+01  5.918200e+01  1.304511e+02
      vertex   9.955322e+01  5.918200e+01  1.367734e+02
    endloop
  endfacet
  facet normal -9.670284e-01  0.000000e+00  2.546688e-01
    outer loop
      vertex   9.788823e+01  6.070600e+01  1.304511e+02
      vertex   9.955322e+01  5.918200e+01  1.367734e+02
      vertex   9.955322e+01  6.070600e+01  1.367734e+02
    endloop
  endfacet
  facet normal -9.357185e-01  0.000000e+00  3.527476e-01
    outer loop
      vertex   9.955322e+01  6.070600e+01  1.367734e+02
      vertex   9.955322e+01  5.918200e+01  1.367734e+02
      vertex   1.018594e+02  5.918200e+01  1.428909e+02
    endloop
  endfacet
  facet normal -9.357185e-01  0.000000e+00  3.527476e-01
    outer loop
      vertex   9.955322e+01  6.070600e+01  1.367734e+02
      vertex   1.018594e+02  5.918200e+01  1.428909e+02
      vertex   1.018594e+02  6.070600e+01  1.428909e+02
    endloop
  endfacet
  facet normal -8.944883e-01  0.000000e+00  4.470913e-01
    outer loop
      vertex   1.018594e+02  6.070600e+01  1.428909e+02
      vertex   1.018594e+02  5.918200e+01  1.428909e+02
      vertex   1.047824e+02  5.918200e+01  1.487389e+02
    endloop
  endfacet
  facet normal -8.944883e-01  0.000000e+00  4.470913e-01
    outer loop
      vertex   1.018594e+02  6.070600e+01  1.428909e+02
      vertex   1.047824e+02  5.918200e+01  1.487389e+02
      vertex   1.047824e+02  6.070600e+01  1.487389e+02
    endloop
  endfacet
  facet normal -8.437676e-01  0.000000e+00  5.367087e-01
    outer loop
      vertex   1.047824e+02  6.070600e+01  1.487389e+02
      vertex   1.047824e+02  5.918200e+01  1.487389e+02
      vertex   1.082913e+02  5.918200e+01  1.542553e+02
    endloop
  endfacet
  facet normal -8.437676e-01  0.000000e+00  5.367087e-01
    outer loop
      vertex   1.047824e+02  6.070600e+01  1.487389e+02
      vertex   1.082913e+02  5.918200e+01  1.542553e+02
      vertex   1.082913e+02  6.070600e+01  1.542553e+02
    endloop
  endfacet
  facet normal -7.841203e-01  0.000000e+00  6.206090e-01
    outer loop
      vertex   1.082913e+02  6.070600e+01  1.542553e+02
      vertex   1.082913e+02  5.918200e+01  1.542553e+02
      vertex   1.123487e+02  5.918200e+01  1.593817e+02
    endloop
  endfacet
  facet normal -7.841203e-01  0.000000e+00  6.206090e-01
    outer loop
      vertex   1.082913e+02  6.070600e+01  1.542553e+02
      vertex   1.123487e+02  5.918200e+01  1.593817e+02
      vertex   1.123487e+02  6.070600e+01  1.593817e+02
    endloop
  endfacet
  facet normal -7.161569e-01  0.000000e+00  6.979394e-01
    outer loop
      vertex   1.123487e+02  6.070600e+01  1.593817e+02
      vertex   1.123487e+02  5.918200e+01  1.593817e+02
      vertex   1.169117e+02  5.918200e+01  1.640638e+02
    endloop
  endfacet
  facet normal -7.161569e-01  0.000000e+00  6.979394e-01
    outer loop
      vertex   1.123487e+02  6.070600e+01  1.593817e+02
      vertex   1.169117e+02  5.918200e+01  1.640638e+02
      vertex   1.169117e+02  6.070600e+01  1.640638e+02
    endloop
  endfacet
  facet normal -6.405928e-01  0.000000e+00  7.678807e-01
    outer loop
      vertex   1.169117e+02  6.070600e+01  1.640638e+02
      vertex   1.169117e+02  5.918200e+01  1.640638e+02
      vertex   1.219320e+02  5.918200e+01  1.682519e+02
    endloop
  endfacet
  facet normal -6.405928e-01  0.000000e+00  7.678807e-01
    outer loop
      vertex   1.169117e+02  6.070600e+01  1.640638e+02
      vertex   1.219320e+02  5.918200e+01  1.682519e+02
      vertex   1.219320e+02  6.070600e+01  1.682519e+02
    endloop
  endfacet
  facet normal -5.582483e-01  0.000000e+00  8.296739e-01
    outer loop
      vertex   1.219320e+02  6.070600e+01  1.682519e+02
      vertex   1.219320e+02  5.918200e+01  1.682519e+02
      vertex   1.273562e+02  5.918200e+01  1.719016e+02
    endloop
  endfacet
  facet normal -5.582483e-01  0.000000e+00  8.296739e-01
    outer loop
      vertex   1.219320e+02  6.070600e+01  1.682519e+02
      vertex   1.273562e+02  5.918200e+01  1.719016e+02
      vertex   1.273562e+02  6.070600e+01  1.719016e+02
    endloop
  endfacet
  facet normal -4.699740e-01  0.000000e+00  8.826803e-01
    outer loop
      vertex   1.273562e+02  6.070600e+01  1.719016e+02
      vertex   1.273562e+02  5.918200e+01  1.719016e+02
      vertex   1.331270e+02  5.918200e+01  1.749742e+02
    endloop
  endfacet
  facet normal -4.699740e-01  0.000000e+00  8.826803e-01
    outer loop
      vertex   1.273562e+02  6.070600e+01  1.719016e+02
      vertex   1.331270e+02  5.918200e+01  1.749742e+02
      vertex   1.331270e+02  6.070600e+01  1.749742e+02
    endloop
  endfacet
  facet normal -3.767200e-01  0.000000e+00  9.263272e-01
    outer loop
      vertex   1.331270e+02  6.070600e+01  1.749742e+02
      vertex   1.331270e+02  5.918200e+01  1.749742e+02
      vertex   1.391831e+02  5.918200e+01  1.774371e+02
    endloop
  endfacet
  facet normal -3.767200e-01  0.000000e+00  9.263272e-01
    outer loop
      vertex   1.331270e+02  6.070600e+01  1.749742e+02
      vertex   1.391831e+02  5.918200e+01  1.774371e+02
      vertex   1.391831e+02  6.070600e+01  1.774371e+02
    endloop
  endfacet
  facet normal -2.794957e-01  0.000000e+00  9.601469e-01
    outer loop
      vertex   1.391831e+02  6.070600e+01  1.774371e+02
      vertex   1.391831e+02  5.918200e+01  1.774371e+02
      vertex   1.454604e+02  5.918200e+01  1.792644e+02
    endloop
  endfacet
  facet normal -2.794957e-01  0.000000e+00  9.601469e-01
    outer loop
      vertex   1.391831e+02  6.070600e+01  1.774371e+02
      vertex   1.454604e+02  5.918200e+01  1.792644e+02
      vertex   1.454604e+02  6.070600e+01  1.792644e+02
    endloop
  endfacet
  facet normal -1.792781e-01  0.000000e+00  9.837984e-01
    outer loop
      vertex   1.454604e+02  6.070600e+01  1.792644e+02
      vertex   1.454604e+02  5.918200e+01  1.792644e+02
      vertex   1.518923e+02  5.918200e+01  1.804365e+02
    endloop
  endfacet
  facet normal -1.792781e-01  0.000000e+00  9.837984e-01
    outer loop
      vertex   1.454604e+02  6.070600e+01  1.792644e+02
      vertex   1.518923e+02  5.918200e+01  1.804365e+02
      vertex   1.518923e+02  6.070600e+01  1.804365e+02
    endloop
  endfacet
  facet normal -7.716696e-02  0.000000e+00  9.970182e-01
    outer loop
      vertex   1.518923e+02  6.070600e+01  1.804365e+02
      vertex   1.518923e+02  5.918200e+01  1.804365e+02
      vertex   1.584106e+02  5.918200e+01  1.809410e+02
    endloop
  endfacet
  facet normal -7.716696e-02  0.000000e+00  9.970182e-01
    outer loop
      vertex   1.518923e+02  6.070600e+01  1.804365e+02
      vertex   1.584106e+02  5.918200e+01  1.809410e+02
      vertex   1.584106e+02  6.070600e+01  1.809410e+02
    endloop
  endfacet
  facet normal  2.574109e-02  0.000000e+00  9.996687e-01
    outer loop
      vertex   1.584106e+02  6.070600e+01  1.809410e+02
      vertex   1.584106e+02  5.918200e+01  1.809410e+02
      vertex   1.649462e+02  5.918200e+01  1.807727e+02
    endloop
  endfacet
  facet normal  2.574109e-02  0.000000e+00  9.996687e-01
    outer loop
      vertex   1.584106e+02  6.070600e+01  1.809410e+02
      vertex   1.649462e+02  5.918200e+01  1.807727e+02
      vertex   1.649462e+02  6.070600e+01  1.807727e+02
    endloop
  endfacet
  facet normal  1.284078e-01  0.000000e+00  9.917214e-01
    outer loop
      vertex   1.649462e+02  6.070600e+01  1.807727e+02
      vertex   1.649462e+02  5.918200e+01  1.807727e+02
      vertex   1.714299e+02  5.918200e+01  1.799332e+02
    endloop
  endfacet
  facet normal  1.284078e-01  0.000000e+00  9.917214e-01
    outer loop
      vertex   1.649462e+02  6.070600e+01  1.807727e+02
      vertex   1.714299e+02  5.918200e+01  1.799332e+02
      vertex   1.714299e+02  6.070600e+01  1.799332e+02
    endloop
  endfacet
  facet normal  2.296810e-01  0.000000e+00  9.732659e-01
    outer loop
      vertex   1.714299e+02  6.070600e+01  1.799332e+02
      vertex   1.714299e+02  5.918200e+01  1.799332e+02
      vertex   1.777929e+02  5.918200e+01  1.784316e+02
    endloop
  endfacet
  facet normal  2.296810e-01  0.000000e+00  9.732659e-01
    outer loop
      vertex   1.714299e+02  6.070600e+01  1.799332e+02
      vertex   1.777929e+02  5.918200e+01  1.784316e+02
      vertex   1.777929e+02  6.070600e+01  1.784316e+02
    endloop
  endfacet
  facet normal  3.285479e-01  0.000000e+00  9.444873e-01
    outer loop
      vertex   1.777929e+02  6.070600e+01  1.784316e+02
      vertex   1.777929e+02  5.918200e+01  1.784316e+02
      vertex   1.839678e+02  5.918200e+01  1.762836e+02
    endloop
  endfacet
  facet normal  3.285479e-01  0.000000e+00  9.444873e-01
    outer loop
      vertex   1.777929e+02  6.070600e+01  1.784316e+02
      vertex   1.839678e+02  5.918200e+01  1.762836e+02
      vertex   1.839678e+02  6.070600e+01  1.762836e+02
    endloop
  endfacet
  facet normal  4.239053e-01  0.000000e+00  9.057065e-01
    outer loop
      vertex   1.839678e+02  6.070600e+01  1.762836e+02
      vertex   1.839678e+02  5.918200e+01  1.762836e+02
      vertex   1.898891e+02  5.918200e+01  1.735122e+02
    endloop
  endfacet
  facet normal  4.239053e-01  0.000000e+00  9.057065e-01
    outer loop
      vertex   1.839678e+02  6.070600e+01  1.762836e+02
      vertex   1.898891e+02  5.918200e+01  1.735122e+02
      vertex   1.898891e+02  6.070600e+01  1.735122e+02
    endloop
  endfacet
  facet normal  5.147947e-01  0.000000e+00  8.573135e-01
    outer loop
      vertex   1.898891e+02  6.070600e+01  1.735122e+02
      vertex   1.898891e+02  5.918200e+01  1.735122e+02
      vertex   1.954940e+02  5.918200e+01  1.701466e+02
    endloop
  endfacet
  facet normal  5.147947e-01  0.000000e+00  8.573135e-01
    outer loop
      vertex   1.898891e+02  6.070600e+01  1.735122e+02
      vertex   1.954940e+02  5.918200e+01  1.701466e+02
      vertex   1.954940e+02  6.070600e+01  1.701466e+02
    endloop
  endfacet
  facet normal  6.002154e-01  0.000000e+00  7.998383e-01
    outer loop
      vertex   1.954940e+02  6.070600e+01  1.701466e+02
      vertex   1.954940e+02  5.918200e+01  1.701466e+02
      vertex   2.007232e+02  5.918200e+01  1.662225e+02
    endloop
  endfacet
  facet normal  6.002154e-01  0.000000e+00  7.998383e-01
    outer loop
      vertex   1.954940e+02  6.070600e+01  1.701466e+02
      vertex   2.007232e+02  5.918200e+01  1.662225e+02
      vertex   2.007232e+02  6.070600e+01  1.662225e+02
    endloop
  endfacet
  facet normal  6.792785e-01  0.000000e+00  7.338806e-01
    outer loop
      vertex   2.007232e+02  6.070600e+01  1.662225e+02
      vertex   2.007232e+02  5.918200e+01  1.662225e+02
      vertex   2.055212e+02  5.918200e+01  1.617815e+02
    endloop
  endfacet
  facet normal  6.792785e-01  0.000000e+00  7.338806e-01
    outer loop
      vertex   2.007232e+02  6.070600e+01  1.662225e+02
      vertex   2.055212e+02  5.918200e+01  1.617815e+02
      vertex   2.055212e+02  6.070600e+01  1.617815e+02
    endloop
  endfacet
  facet normal  7.511228e-01  0.000000e+00  6.601624e-01
    outer loop
      vertex   2.055212e+02  6.070600e+01  1.617815e+02
      vertex   2.055212e+02  5.918200e+01  1.617815e+02
      vertex   2.098372e+02  5.918200e+01  1.568708e+02
    endloop
  endfacet
  facet normal  7.511228e-01  0.000000e+00  6.601624e-01
    outer loop
      vertex   2.055212e+02  6.070600e+01  1.617815e+02
      vertex   2.098372e+02  5.918200e+01  1.568708e+02
      vertex   2.098372e+02  6.070600e+01  1.568708e+02
    endloop
  endfacet
  facet normal  8.150318e-01  0.000000e+00  5.794162e-01
    outer loop
      vertex   2.098372e+02  6.070600e+01  1.568708e+02
      vertex   2.098372e+02  5.918200e+01  1.568708e+02
      vertex   2.136253e+02  5.918200e+01  1.515423e+02
    endloop
  endfacet
  facet normal  8.150318e-01  0.000000e+00  5.794162e-01
    outer loop
      vertex   2.098372e+02  6.070600e+01  1.568708e+02
      vertex   2.136253e+02  5.918200e+01  1.515423e+02
      vertex   2.136253e+02  6.070600e+01  1.515423e+02
    endloop
  endfacet
  facet normal  8.702859e-01  0.000000e+00  4.925467e-01
    outer loop
      vertex   2.136253e+02  6.070600e+01  1.515423e+02
      vertex   2.136253e+02  5.918200e+01  1.515423e+02
      vertex   2.168455e+02  5.918200e+01  1.458525e+02
    endloop
  endfacet
  facet normal  8.702859e-01  0.000000e+00  4.925467e-01
    outer loop
      vertex   2.136253e+02  6.070600e+01  1.515423e+02
      vertex   2.168455e+02  5.918200e+01  1.458525e+02
      vertex   2.168455e+02  6.070600e+01  1.458525e+02
    endloop
  endfacet
  facet normal  9.163168e-01  0.000000e+00  4.004542e-01
    outer loop
      vertex   2.168455e+02  6.070600e+01  1.458525e+02
      vertex   2.168455e+02  5.918200e+01  1.458525e+02
      vertex   2.194636e+02  5.918200e+01  1.398618e+02
    endloop
  endfacet
  facet normal  9.163168e-01  0.000000e+00  4.004542e-01
    outer loop
      vertex   2.168455e+02  6.070600e+01  1.458525e+02
      vertex   2.194636e+02  5.918200e+01  1.398618e+02
      vertex   2.194636e+02  6.070600e+01  1.398618e+02
    endloop
  endfacet
  facet normal  9.526365e-01  0.000000e+00  3.041113e-01
    outer loop
      vertex   2.194636e+02  6.070600e+01  1.398618e+02
      vertex   2.194636e+02  5.918200e+01  1.398618e+02
      vertex   2.214518e+02  5.918200e+01  1.336337e+02
    endloop
  endfacet
  facet normal  9.526365e-01  0.000000e+00  3.041113e-01
    outer loop
      vertex   2.194636e+02  6.070600e+01  1.398618e+02
      vertex   2.214518e+02  5.918200e+01  1.336337e+02
      vertex   2.214518e+02  6.070600e+01  1.336337e+02
    endloop
  endfacet
  facet normal  9.788567e-01  0.000000e+00  2.045474e-01
    outer loop
      vertex   2.214518e+02  6.070600e+01  1.336337e+02
      vertex   2.214518e+02  5.918200e+01  1.336337e+02
      vertex   2.227891e+02  5.918200e+01  1.272341e+02
    endloop
  endfacet
  facet normal  9.788567e-01  0.000000e+00  2.045474e-01
    outer loop
      vertex   2.214518e+02  6.070600e+01  1.336337e+02
      vertex   2.227891e+02  5.918200e+01  1.272341e+02
      vertex   2.227891e+02  6.070600e+01  1.272341e+02
    endloop
  endfacet
  facet normal  9.946986e-01  0.000000e+00  1.028338e-01
    outer loop
      vertex   2.227891e+02  6.070600e+01  1.272341e+02
      vertex   2.227891e+02  5.918200e+01  1.272341e+02
      vertex   2.234614e+02  5.918200e+01  1.207310e+02
    endloop
  endfacet
  facet normal  9.946986e-01  0.000000e+00  1.028338e-01
    outer loop
      vertex   2.227891e+02  6.070600e+01  1.272341e+02
      vertex   2.234614e+02  5.918200e+01  1.207310e+02
      vertex   2.234614e+02  6.070600e+01  1.207310e+02
    endloop
  endfacet
  facet normal  9.996685e-01  0.000000e+00  2.574870e-02
    outer loop
      vertex   2.234614e+02  6.070600e+01  1.207310e+02
      vertex   2.234614e+02  5.918200e+01  1.207310e+02
      vertex   2.235456e+02  6.070600e+01  1.174621e+02
    endloop
  endfacet
  facet normal  0.000000e+00 -1.000000e+00  0.000000e+00
    outer loop
      vertex   2.235456e+02  5.918200e+01  1.174621e+02
      vertex   2.234614e+02  5.918200e+01  1.207310e+02
      vertex   1.600456e+02  5.918200e+01  1.174621e+02
    endloop
  endfacet
  facet normal -0.000000e+00 -1.000000e+00  0.000000e+00
    outer loop
      vertex   2.235456e+02  5.918200e+01  1.174621e+02
      vertex   1.600456e+02  5.918200e+01  1.174621e+02
      vertex   2.234614e+02  5.918200e+01  1.141932e+02
    endloop
  endfacet
  facet normal  0.000000e+00 -1.000000e+00  0.000000e+00
    outer loop
      vertex   2.194636e+02  5.918200e+01  9.506232e+01
      vertex   2.214518e+02  5.918200e+01  1.012905e+02
      vertex   1.600456e+02  5.918200e+01  1.174621e+02
    endloop
  endfacet
  facet normal  0.000000e+00 -1.000000e+00  0.000000e+00
    outer loop
      vertex   1.600456e+02  5.918200e+01  1.174621e+02
      vertex   2.214518e+02  5.918200e+01  1.012905e+02
      vertex   2.227891e+02  5.918200e+01  1.076900e+02
    endloop
  endfacet
  facet normal  0.000000e+00 -1.000000e+00  0.000000e+00
    outer loop
      vertex   1.600456e+02  5.918200e+01  1.174621e+02
      vertex   2.227891e+02  5.918200e+01  1.076900e+02
      vertex   2.234614e+02  5.918200e+01  1.141932e+02
    endloop
  endfacet
  facet normal  0.000000e+00 -1.000000e+00  0.000000e+00
    outer loop
      vertex   2.098372e+02  5.918200e+01  7.805338e+01
      vertex   2.136253e+02  5.918200e+01  8.338187e+01
      vertex   1.600456e+02  5.918200e+01  1.174621e+02
    endloop
  endfacet
  facet normal  0.000000e+00 -1.000000e+00  0.000000e+00
    outer loop
      vertex   1.600456e+02  5.918200e+01  1.174621e+02
      vertex   2.136253e+02  5.918200e+01  8.338187e+01
      vertex   2.168455e+02  5.918200e+01  8.907162e+01
    endloop
  endfacet
  facet normal  0.000000e+00 -1.000000e+00  0.000000e+00
    outer loop
      vertex   1.600456e+02  5.918200e+01  1.174621e+02
      vertex   2.168455e+02  5.918200e+01  8.907162e+01
      vertex   2.194636e+02  5.918200e+01  9.506232e+01
    endloop
  endfacet
  facet normal  0.000000e+00 -1.000000e+00  0.000000e+00
    outer loop
      vertex   1.954940e+02  5.918200e+01  6.477759e+01
      vertex   2.007232e+02  5.918200e+01  6.870167e+01
      vertex   1.600456e+02  5.918200e+01  1.174621e+02
    endloop
  endfacet
  facet normal  0.000000e+00 -1.000000e+00  0.000000e+00
    outer loop
      vertex   1.600456e+02  5.918200e+01  1.174621e+02
      vertex   2.007232e+02  5.918200e+01  6.870167e+01
      vertex   2.055212e+02  5.918200e+01  7.314262e+01
    endloop
  endfacet
  facet normal  0.000000e+00 -1.000000e+00  0.000000e+00
    outer loop
      vertex   1.600456e+02  5.918200e+01  1.174621e+02
      vertex   2.055212e+02  5.918200e+01  7.314262e+01
      vertex   2.098372e+02  5.918200e+01  7.805338e+01
    endloop
  endfacet
  facet normal  0.000000e+00 -1.000000e+00  0.000000e+00
    outer loop
      vertex   1.777929e+02  5.918200e+01  5.649256e+01
      vertex   1.839678e+02  5.918200e+01  5.864051e+01
      vertex   1.600456e+02  5.918200e+01  1.174621e+02
    endloop
  endfacet
  facet normal  0.000000e+00 -1.000000e+00  0.000000e+00
    outer loop
      vertex   1.600456e+02  5.918200e+01  1.174621e+02
      vertex   1.839678e+02  5.918200e+01  5.864051e+01
      vertex   1.898891e+02  5.918200e+01  6.141197e+01
    endloop
  endfacet
  facet normal  0.000000e+00 -1.000000e+00  0.000000e+00
    outer loop
      vertex   1.600456e+02  5.918200e+01  1.174621e+02
      vertex   1.898891e+02  5.918200e+01  6.141197e+01
      vertex   1.954940e+02  5.918200e+01  6.477759e+01
    endloop
  endfacet
  facet normal  0.000000e+00 -1.000000e+00  0.000000e+00
    outer loop
      vertex   1.584106e+02  5.918200e+01  5.398313e+01
      vertex   1.649462e+02  5.918200e+01  5.415146e+01
      vertex   1.600456e+02  5.918200e+01  1.174621e+02
    endloop
  endfacet
  facet normal  0.000000e+00 -1.000000e+00  0.000000e+00
    outer loop
      vertex   1.600456e+02  5.918200e+01  1.174621e+02
      vertex   1.649462e+02  5.918200e+01  5.415146e+01
      vertex   1.714299e+02  5.918200e+01  5.499091e+01
    endloop
  endfacet
  facet normal  0.000000e+00 -1.000000e+00  0.000000e+00
    outer loop
      vertex   1.600456e+02  5.918200e+01  1.174621e+02
      vertex   1.714299e+02  5.918200e+01  5.499091e+01
      vertex   1.777929e+02  5.918200e+01  5.649256e+01
    endloop
  endfacet
  facet normal  0.000000e+00 -1.000000e+00  0.000000e+00
    outer loop
      vertex   1.391831e+02  5.918200e+01  5.748701e+01
      vertex   1.454604e+02  5.918200e+01  5.565979e+01
      vertex   1.600456e+02  5.918200e+01  1.174621e+02
    endloop
  endfacet
  facet normal  0.000000e+00 -1.000000e+00  0.000000e+00
    outer loop
      vertex   1.600456e+02  5.918200e+01  1.174621e+02
      vertex   1.454604e+02  5.918200e+01  5.565979e+01
      vertex   1.518923e+02  5.918200e+01  5.448768e+01
    endloop
  endfacet
  facet normal  0.000000e+00 -1.000000e+00  0.000000e+00
    outer loop
      vertex   1.600456e+02  5.918200e+01  1.174621e+02
      vertex   1.518923e+02  5.918200e+01  5.448768e+01
      vertex   1.584106e+02  5.918200e+01  5.398313e+01
    endloop
  endfacet
  facet normal  0.000000e+00 -1.000000e+00  0.000000e+00
    outer loop
      vertex   1.219320e+02  5.918200e+01  6.667229e+01
      vertex   1.273562e+02  5.918200e+01  6.302260e+01
      vertex   1.600456e+02  5.918200e+01  1.174621e+02
    endloop
  endfacet
  facet normal  0.000000e+00 -1.000000e+00  0.000000e+00
    outer loop
      vertex   1.600456e+02  5.918200e+01  1.174621e+02
      vertex   1.273562e+02  5.918200e+01  6.302260e+01
      vertex   1.331270e+02  5.918200e+01  5.994998e+01
    endloop
  endfacet
  facet normal  0.000000e+00 -1.000000e+00  0.000000e+00
    outer loop
      vertex   1.600456e+02  5.918200e+01  1.174621e+02
      vertex   1.331270e+02  5.918200e+01  5.994998e+01
      vertex   1.391831e+02  5.918200e+01  5.748701e+01
    endloop
  endfacet
  facet normal  0.000000e+00 -1.000000e+00  0.000000e+00
    outer loop
      vertex   1.082913e+02  5.918200e+01  8.066884e+01
      vertex   1.123487e+02  5.918200e+01  7.554242e+01
      vertex   1.600456e+02  5.918200e+01  1.174621e+02
    endloop
  endfacet
  facet normal  0.000000e+00 -1.000000e+00  0.000000e+00
    outer loop
      vertex   1.600456e+02  5.918200e+01  1.174621e+02
      vertex   1.123487e+02  5.918200e+01  7.554242e+01
      vertex   1.169117e+02  5.918200e+01  7.086036e+01
    endloop
  endfacet
  facet normal  0.000000e+00 -1.000000e+00  0.000000e+00
    outer loop
      vertex   1.600456e+02  5.918200e+01  1.174621e+02
      vertex   1.169117e+02  5.918200e+01  7.086036e+01
      vertex   1.219320e+02  5.918200e+01  6.667229e+01
    endloop
  endfacet
  facet normal  0.000000e+00 -1.000000e+00  0.000000e+00
    outer loop
      vertex   9.955322e+01  5.918200e+01  9.815079e+01
      vertex   1.018594e+02  5.918200e+01  9.203326e+01
      vertex   1.600456e+02  5.918200e+01  1.174621e+02
    endloop
  endfacet
  facet normal  0.000000e+00 -1.000000e+00  0.000000e+00
    outer loop
      vertex   1.600456e+02  5.918200e+01  1.174621e+02
      vertex   1.018594e+02  5.918200e+01  9.203326e+01
      vertex   1.047824e+02  5.918200e+01  8.618527e+01
    endloop
  endfacet
  facet normal  0.000000e+00 -1.000000e+00  0.000000e+00
    outer loop
      vertex   1.600456e+02  5.918200e+01  1.174621e+02
      vertex   1.047824e+02  5.918200e+01  8.618527e+01
      vertex   1.082913e+02  5.918200e+01  8.066884e+01
    endloop
  endfacet
  facet normal  0.000000e+00 -1.000000e+00  0.000000e+00
    outer loop
      vertex   9.654556e+01  5.918200e+01  1.174621e+02
      vertex   9.688212e+01  5.918200e+01  1.109329e+02
      vertex   1.600456e+02  5.918200e+01  1.174621e+02
    endloop
  endfacet
  facet normal  0.000000e+00 -1.000000e+00  0.000000e+00
    outer loop
      vertex   1.600456e+02  5.918200e+01  1.174621e+02
      vertex   9.688212e+01  5.918200e+01  1.109329e+02
      vertex   9.788823e+01  5.918200e+01  1.044730e+02
    endloop
  endfacet
  facet normal  0.000000e+00 -1.000000e+00  0.000000e+00
    outer loop
      vertex   1.600456e+02  5.918200e+01  1.174621e+02
      vertex   9.788823e+01  5.918200e+01  1.044730e+02
      vertex   9.955322e+01  5.918200e+01  9.815079e+01
    endloop
  endfacet
  facet normal  0.000000e+00 -1.000000e+00 -0.000000e+00
    outer loop
      vertex   9.955322e+01  5.918200e+01  1.367734e+02
      vertex   9.788823e+01  5.918200e+01  1.304511e+02
      vertex   1.600456e+02  5.918200e+01  1.174621e+02
    endloop
  endfacet
  facet normal  0.000000e+00 -1.000000e+00  0.000000e+00
    outer loop
      vertex   1.600456e+02  5.918200e+01  1.174621e+02
      vertex   9.788823e+01  5.918200e+01  1.304511e+02
      vertex   9.688212e+01  5.918200e+01  1.239912e+02
    endloop
  endfacet
  facet normal  0.000000e+00 -1.000000e+00  0.000000e+00
    outer loop
      vertex   1.600456e+02  5.918200e+01  1.174621e+02
      vertex   9.688212e+01  5.918200e+01  1.239912e+02
      vertex   9.654556e+01  5.918200e+01  1.174621e+02
    endloop
  endfacet
  facet normal  0.000000e+00 -1.000000e+00 -0.000000e+00
    outer loop
      vertex   1.082913e+02  5.918200e+01  1.542553e+02
      vertex   1.047824e+02  5.918200e+01  1.487389e+02
      vertex   1.600456e+02  5.918200e+01  1.174621e+02
    endloop
  endfacet
  facet normal  0.000000e+00 -1.000000e+00  0.000000e+00
    outer loop
      vertex   1.600456e+02  5.918200e+01  1.174621e+02
      vertex   1.047824e+02  5.918200e+01  1.487389e+02
      vertex   1.018594e+02  5.918200e+01  1.428909e+02
    endloop
  endfacet
  facet normal  0.000000e+00 -1.000000e+00  0.000000e+00
    outer loop
      vertex   1.600456e+02  5.918200e+01  1.174621e+02
      vertex   1.018594e+02  5.918200e+01  1.428909e+02
      vertex   9.955322e+01  5.918200e+01  1.367734e+02
    endloop
  endfacet
  facet normal  0.000000e+00 -1.000000e+00 -0.000000e+00
    outer loop
      vertex   1.219320e+02  5.918200e+01  1.682519e+02
      vertex   1.169117e+02  5.918200e+01  1.640638e+02
      vertex   1.600456e+02  5.918200e+01  1.174621e+02
    endloop
  endfacet
  facet normal  0.000000e+00 -1.000000e+00  0.000000e+00
    outer loop
      vertex   1.600456e+02  5.918200e+01  1.174621e+02
      vertex   1.169117e+02  5.918200e+01  1.640638e+02
      vertex   1.123487e+02  5.918200e+01  1.593817e+02
    endloop
  endfacet
  facet normal  0.000000e+00 -1.000000e+00  0.000000e+00
    outer loop
      vertex   1.600456e+02  5.918200e+01  1.174621e+02
      vertex   1.123487e+02  5.918200e+01  1.593817e+02
      vertex   1.082913e+02  5.918200e+01  1.542553e+02
    endloop
  endfacet
  facet normal  0.000000e+00 -1.000000e+00 -0.000000e+00
    outer loop
      vertex   1.391831e+02  5.918200e+01  1.774371e+02
      vertex   1.331270e+02  5.918200e+01  1.749742e+02
      vertex   1.600456e+02  5.918200e+01  1.174621e+02
    endloop
  endfacet
  facet normal  0.000000e+00 -1.000000e+00  0.000000e+00
    outer loop
      vertex   1.600456e+02  5.918200e+01  1.174621e+02
      vertex   1.331270e+02  5.918200e+01  1.749742e+02
      vertex   1.273562e+02  5.918200e+01  1.719016e+02
    endloop
  endfacet
  facet normal  0.000000e+00 -1.000000e+00  0.000000e+00
    outer loop
      vertex   1.600456e+02  5.918200e+01  1.174621e+02
      vertex   1.273562e+02  5.918200e+01  1.719016e+02
      vertex   1.219320e+02  5.918200e+01  1.682519e+02
    endloop
  endfacet
  facet normal  0.000000e+00 -1.000000e+00 -0.000000e+00
    outer loop
      vertex   1.584106e+02  5.918200e+01  1.809410e+02
      vertex   1.518923e+02  5.918200e+01  1.804365e+02
      vertex   1.600456e+02  5.918200e+01  1.174621e+02
    endloop
  endfacet
  facet normal  0.000000e+00 -1.000000e+00  0.000000e+00
    outer loop
      vertex   1.600456e+02  5.918200e+01  1.174621e+02
      vertex   1.518923e+02  5.918200e+01  1.804365e+02
      vertex   1.454604e+02  5.918200e+01  1.792644e+02
    endloop
  endfacet
  facet normal  0.000000e+00 -1.000000e+00  0.000000e+00
    outer loop
      vertex   1.600456e+02  5.918200e+01  1.174621e+02
      vertex   1.454604e+02  5.918200e+01  1.792644e+02
      vertex   1.391831e+02  5.918200e+01  1.774371e+02
    endloop
  endfacet
  facet normal -0.000000e+00 -1.000000e+00  0.000000e+00
    outer loop
      vertex   1.777929e+02  5.918200e+01  1.784316e+02
      vertex   1.714299e+02  5.918200e+01  1.799332e+02
      vertex   1.600456e+02  5.918200e+01  1.174621e+02
    endloop
  endfacet
  facet normal  0.000000e+00 -1.000000e+00  0.000000e+00
    outer loop
      vertex   1.600456e+02  5.918200e+01  1.174621e+02
      vertex   1.714299e+02  5.918200e+01  1.799332e+02
      vertex   1.649462e+02  5.918200e+01  1.807727e+02
    endloop
  endfacet
  facet normal  0.000000e+00 -1.000000e+00  0.000000e+00
    outer loop
      vertex   1.600456e+02  5.918200e+01  1.174621e+02
      vertex   1.649462e+02  5.918200e+01  1.807727e+02
      vertex   1.584106e+02  5.918200e+01  1.809410e+02
    endloop
  endfacet
  facet normal -0.000000e+00 -1.000000e+00  0.000000e+00
    outer loop
      vertex   1.954940e+02  5.918200e+01  1.701466e+02
      vertex   1.898891e+02  5.918200e+01  1.735122e+02
      vertex   1.600456e+02  5.918200e+01  1.174621e+02
    endloop
  endfacet
  facet normal  0.000000e+00 -1.000000e+00  0.000000e+00
    outer loop
      vertex   1.600456e+02  5.918200e+01  1.174621e+02
      vertex   1.898891e+02  5.918200e+01  1.735122e+02
      vertex   1.839678e+02  5.918200e+01  1.762836e+02
    endloop
  endfacet
  facet normal  0.000000e+00 -1.000000e+00  0.000000e+00
    outer loop
      vertex   1.600456e+02  5.918200e+01  1.174621e+02
      vertex   1.839678e+02  5.918200e+01  1.762836e+02
      vertex   1.777929e+02  5.918200e+01  1.784316e+02
    endloop
  endfacet
  facet normal -0.000000e+00 -1.000000e+00  0.000000e+00
    outer loop
      vertex   2.098372e+02  5.918200e+01  1.568708e+02
      vertex   2.055212e+02  5.918200e+01  1.617815e+02
      vertex   1.600456e+02  5.918200e+01  1.174621e+02
    endloop
  endfacet
  facet normal  0.000000e+00 -1.000000e+00  0.000000e+00
    outer loop
      vertex   1.600456e+02  5.918200e+01  1.174621e+02
      vertex   2.055212e+02  5.918200e+01  1.617815e+02
      vertex   2.007232e+02  5.918200e+01  1.662225e+02
    endloop
  endfacet
  facet normal  0.000000e+00 -1.000000e+00  0.000000e+00
    outer loop
      vertex   1.600456e+02  5.918200e+01  1.174621e+02
      vertex   2.007232e+02  5.918200e+01  1.662225e+02
      vertex   1.954940e+02  5.918200e+01  1.701466e+02
    endloop
  endfacet
  facet normal -0.000000e+00 -1.000000e+00  0.000000e+00
    outer loop
      vertex   2.194636e+02  5.918200e+01  1.398618e+02
      vertex   2.168455e+02  5.918200e+01  1.458525e+02
      vertex   1.600456e+02  5.918200e+01  1.174621e+02
    endloop
  endfacet
  facet normal  0.000000e+00 -1.000000e+00  0.000000e+00
    outer loop
      vertex   1.600456e+02  5.918200e+01  1.174621e+02
      vertex   2.168455e+02  5.918200e+01  1.458525e+02
      vertex   2.136253e+02  5.918200e+01  1.515423e+02
    endloop
  endfacet
  facet normal  0.000000e+00 -1.000000e+00  0.000000e+00
    outer loop
      vertex   1.600456e+02  5.918200e+01  1.174621e+02
      vertex   2.136253e+02  5.918200e+01  1.515423e+02
      vertex   2.098372e+02  5.918200e+01  1.568708e+02
    endloop
  endfacet
  facet normal -0.000000e+00 -1.000000e+00  0.000000e+00
    outer loop
      vertex   2.234614e+02  5.918200e+01  1.207310e+02
      vertex   2.227891e+02  5.918200e+01  1.272341e+02
      vertex   1.600456e+02  5.918200e+01  1.174621e+02
    endloop
  endfacet
  facet normal  0.000000e+00 -1.000000e+00  0.000000e+00
    outer loop
      vertex   1.600456e+02  5.918200e+01  1.174621e+02
      vertex   2.227891e+02  5.918200e+01  1.272341e+02
      vertex   2.214518e+02  5.918200e+01  1.336337e+02
    endloop
  endfacet
  facet normal  0.000000e+00 -1.000000e+00  0.000000e+00
    outer loop
      vertex   1.600456e+02  5.918200e+01  1.174621e+02
      vertex   2.214518e+02  5.918200e+01  1.336337e+02
      vertex   2.194636e+02  5.918200e+01  1.398618e+02
    endloop
  endfacet
  facet normal  0.000000e+00  1.000000e+00  0.000000e+00
    outer loop
      vertex   2.235456e+02  6.070600e+01  1.174621e+02
      vertex   2.234614e+02  6.070600e+01  1.141932e+02
      vertex   1.600456e+02  6.070600e+01  1.174621e+02
    endloop
  endfacet
  facet normal  0.000000e+00  1.000000e+00  0.000000e+00
    outer loop
      vertex   2.235456e+02  6.070600e+01  1.174621e+02
      vertex   1.600456e+02  6.070600e+01  1.174621e+02
      vertex   2.234614e+02  6.070600e+01  1.207310e+02
    endloop
  endfacet
  facet normal  0.000000e+00  1.000000e+00  0.000000e+00
    outer loop
      vertex   2.194636e+02  6.070600e+01  1.398618e+02
      vertex   2.214518e+02  6.070600e+01  1.336337e+02
      vertex   1.600456e+02  6.070600e+01  1.174621e+02
    endloop
  endfacet
  facet normal  0.000000e+00  1.000000e+00  0.000000e+00
    outer loop
      vertex   1.600456e+02  6.070600e+01  1.174621e+02
      vertex   2.214518e+02  6.070600e+01  1.336337e+02
      vertex   2.227891e+02  6.070600e+01  1.272341e+02
    endloop
  endfacet
  facet normal  0.000000e+00  1.000000e+00  0.000000e+00
    outer loop
      vertex   1.600456e+02  6.070600e+01  1.174621e+02
      vertex   2.227891e+02  6.070600e+01  1.272341e+02
      vertex   2.234614e+02  6.070600e+01  1.207310e+02
    endloop
  endfacet
  facet normal  0.000000e+00  1.000000e+00  0.000000e+00
    outer loop
      vertex   2.098372e+02  6.070600e+01  1.568708e+02
      vertex   2.136253e+02  6.070600e+01  1.515423e+02
      vertex   1.600456e+02  6.070600e+01  1.174621e+02
    endloop
  endfacet
  facet normal  0.000000e+00  1.000000e+00  0.000000e+00
    outer loop
      vertex   1.600456e+02  6.070600e+01  1.174621e+02
      vertex   2.136253e+02  6.070600e+01  1.515423e+02
      vertex   2.168455e+02  6.070600e+01  1.458525e+02
    endloop
  endfacet
  facet normal  0.000000e+00  1.000000e+00  0.000000e+00
    outer loop
      vertex   1.600456e+02  6.070600e+01  1.174621e+02
      vertex   2.168455e+02  6.070600e+01  1.458525e+02
      vertex   2.194636e+02  6.070600e+01  1.398618e+02
    endloop
  endfacet
  facet normal  0.000000e+00  1.000000e+00  0.000000e+00
    outer loop
      vertex   1.954940e+02  6.070600e+01  1.701466e+02
      vertex   2.007232e+02  6.070600e+01  1.662225e+02
      vertex   1.600456e+02  6.070600e+01  1.174621e+02
    endloop
  endfacet
  facet normal  0.000000e+00  1.000000e+00  0.000000e+00
    outer loop
      vertex   1.600456e+02  6.070600e+01  1.174621e+02
      vertex   2.007232e+02  6.070600e+01  1.662225e+02
      vertex   2.055212e+02  6.070600e+01  1.617815e+02
    endloop
  endfacet
  facet normal  0.000000e+00  1.000000e+00  0.000000e+00
    outer loop
      vertex   1.600456e+02  6.070600e+01  1.174621e+02
      vertex   2.055212e+02  6.070600e+01  1.617815e+02
      vertex   2.098372e+02  6.070600e+01  1.568708e+02
    endloop
  endfacet
  facet normal  0.000000e+00  1.000000e+00  0.000000e+00
    outer loop
      vertex   1.777929e+02  6.070600e+01  1.784316e+02
      vertex   1.839678e+02  6.070600e+01  1.762836e+02
      vertex   1.600456e+02  6.070600e+01  1.174621e+02
    endloop
  endfacet
  facet normal  0.000000e+00  1.000000e+00  0.000000e+00
    outer loop
      vertex   1.600456e+02  6.070600e+01  1.174621e+02
      vertex   1.839678e+02  6.070600e+01  1.762836e+02
      vertex   1.898891e+02  6.070600e+01  1.735122e+02
    endloop
  endfacet
  facet normal  0.000000e+00  1.000000e+00  0.000000e+00
    outer loop
      vertex   1.600456e+02  6.070600e+01  1.174621e+02
      vertex   1.898891e+02  6.070600e+01  1.735122e+02
      vertex   1.954940e+02  6.070600e+01  1.701466e+02
    endloop
  endfacet
  facet normal  0.000000e+00  1.000000e+00  0.000000e+00
    outer loop
      vertex   1.584106e+02  6.070600e+01  1.809410e+02
      vertex   1.649462e+02  6.070600e+01  1.807727e+02
      vertex   1.600456e+02  6.070600e+01  1.174621e+02
    endloop
  endfacet
  facet normal  0.000000e+00  1.000000e+00  0.000000e+00
    outer loop
      vertex   1.600456e+02  6.070600e+01  1.174621e+02
      vertex   1.649462e+02  6.070600e+01  1.807727e+02
      vertex   1.714299e+02  6.070600e+01  1.799332e+02
    endloop
  endfacet
  facet normal  0.000000e+00  1.000000e+00  0.000000e+00
    outer loop
      vertex   1.600456e+02  6.070600e+01  1.174621e+02
      vertex   1.714299e+02  6.070600e+01  1.799332e+02
      vertex   1.777929e+02  6.070600e+01  1.784316e+02
    endloop
  endfacet
  facet normal -0.000000e+00  1.000000e+00  0.000000e+00
    outer loop
      vertex   1.391831e+02  6.070600e+01  1.774371e+02
      vertex   1.454604e+02  6.070600e+01  1.792644e+02
      vertex   1.600456e+02  6.070600e+01  1.174621e+02
    endloop
  endfacet
  facet normal  0.000000e+00  1.000000e+00  0.000000e+00
    outer loop
      vertex   1.600456e+02  6.070600e+01  1.174621e+02
      vertex   1.454604e+02  6.070600e+01  1.792644e+02
      vertex   1.518923e+02  6.070600e+01  1.804365e+02
    endloop
  endfacet
  facet normal  0.000000e+00  1.000000e+00  0.000000e+00
    outer loop
      vertex   1.600456e+02  6.070600e+01  1.174621e+02
      vertex   1.518923e+02  6.070600e+01  1.804365e+02
      vertex   1.584106e+02  6.070600e+01  1.809410e+02
    endloop
  endfacet
  facet normal -0.000000e+00  1.000000e+00  0.000000e+00
    outer loop
      vertex   1.219320e+02  6.070600e+01  1.682519e+02
      vertex   1.273562e+02  6.070600e+01  1.719016e+02
      vertex   1.600456e+02  6.070600e+01  1.174621e+02
    endloop
  endfacet
  facet normal  0.000000e+00  1.000000e+00  0.000000e+00
    outer loop
      vertex   1.600456e+02  6.070600e+01  1.174621e+02
      vertex   1.273562e+02  6.070600e+01  1.719016e+02
      vertex   1.331270e+02  6.070600e+01  1.749742e+02
    endloop
  endfacet
  facet normal  0.000000e+00  1.000000e+00  0.000000e+00
    outer loop
      vertex   1.600456e+02  6.070600e+01  1.174621e+02
      vertex   1.331270e+02  6.070600e+01  1.749742e+02
      vertex   1.391831e+02  6.070600e+01  1.774371e+02
    endloop
  endfacet
  facet normal -0.000000e+00  1.000000e+00  0.000000e+00
    outer loop
      vertex   1.082913e+02  6.070600e+01  1.542553e+02
      vertex   1.123487e+02  6.070600e+01  1.593817e+02
      vertex   1.600456e+02  6.070600e+01  1.174621e+02
    endloop
  endfacet
  facet normal  0.000000e+00  1.000000e+00  0.000000e+00
    outer loop
      vertex   1.600456e+02  6.070600e+01  1.174621e+02
      vertex   1.123487e+02  6.070600e+01  1.593817e+02
      vertex   1.169117e+02  6.070600e+01  1.640638e+02
    endloop
  endfacet
  facet normal  0.000000e+00  1.000000e+00  0.000000e+00
    outer loop
      vertex   1.600456e+02  6.070600e+01  1.174621e+02
      vertex   1.169117e+02  6.070600e+01  1.640638e+02
      vertex   1.219320e+02  6.070600e+01  1.682519e+02
    endloop
  endfacet
  facet normal -0.000000e+00  1.000000e+00  0.000000e+00
    outer loop
      vertex   9.955322e+01  6.070600e+01  1.367734e+02
      vertex   1.018594e+02  6.070600e+01  1.428909e+02
      vertex   1.600456e+02  6.070600e+01  1.174621e+02
    endloop
  endfacet
  facet normal  0.000000e+00  1.000000e+00  0.000000e+00
    outer loop
      vertex   1.600456e+02  6.070600e+01  1.174621e+02
      vertex   1.018594e+02  6.070600e+01  1.428909e+02
      vertex   1.047824e+02  6.070600e+01  1.487389e+02
    endloop
  endfacet
  facet normal  0.000000e+00  1.000000e+00  0.000000e+00
    outer loop
      vertex   1.600456e+02  6.070600e+01  1.174621e+02
      vertex   1.047824e+02  6.070600e+01  1.487389e+02
      vertex   1.082913e+02  6.070600e+01  1.542553e+02
    endloop
  endfacet
  facet normal  0.000000e+00  1.000000e+00  0.000000e+00
    outer loop
      vertex   9.654556e+01  6.070600e+01  1.174621e+02
      vertex   9.688212e+01  6.070600e+01  1.239912e+02
      vertex   1.600456e+02  6.070600e+01  1.174621e+02
    endloop
  endfacet
  facet normal  0.000000e+00  1.000000e+00  0.000000e+00
    outer loop
      vertex   1.600456e+02  6.070600e+01  1.174621e+02
      vertex   9.688212e+01  6.070600e+01  1.239912e+02
      vertex   9.788823e+01  6.070600e+01  1.304511e+02
    endloop
  endfacet
  facet normal  0.000000e+00  1.000000e+00  0.000000e+00
    outer loop
      vertex   1.600456e+02  6.070600e+01  1.174621e+02
      vertex   9.788823e+01  6.070600e+01  1.304511e+02
      vertex   9.955322e+01  6.070600e+01  1.367734e+02
    endloop
  endfacet
  facet normal  0.000000e+00  1.000000e+00 -0.000000e+00
    outer loop
      vertex   9.955322e+01  6.070600e+01  9.815079e+01
      vertex   9.788823e+01  6.070600e+01  1.044730e+02
      vertex   1.600456e+02  6.070600e+01  1.174621e+02
    endloop
  endfacet
  facet normal  0.000000e+00  1.000000e+00  0.000000e+00
    outer loop
      vertex   1.600456e+02  6.070600e+01  1.174621e+02
      vertex   9.788823e+01  6.070600e+01  1.044730e+02
      vertex   9.688212e+01  6.070600e+01  1.109329e+02
    endloop
  endfacet
  facet normal  0.000000e+00  1.000000e+00  0.000000e+00
    outer loop
      vertex   1.600456e+02  6.070600e+01  1.174621e+02
      vertex   9.688212e+01  6.070600e+01  1.109329e+02
      vertex   9.654556e+01  6.070600e+01  1.174621e+02
    endloop
  endfacet
  facet normal  0.000000e+00  1.000000e+00 -0.000000e+00
    outer loop
      vertex   1.082913e+02  6.070600e+01  8.066884e+01
      vertex   1.047824e+02  6.070600e+01  8.618527e+01
      vertex   1.600456e+02  6.070600e+01  1.174621e+02
    endloop
  endfacet
  facet normal  0.000000e+00  1.000000e+00  0.000000e+00
    outer loop
      vertex   1.600456e+02  6.070600e+01  1.174621e+02
      vertex   1.047824e+02  6.070600e+01  8.618527e+01
      vertex   1.018594e+02  6.070600e+01  9.203326e+01
    endloop
  endfacet
  facet normal  0.000000e+00  1.000000e+00  0.000000e+00
    outer loop
      vertex   1.600456e+02  6.070600e+01  1.174621e+02
      vertex   1.018594e+02  6.070600e+01  9.203326e+01
      vertex   9.955322e+01  6.070600e+01  9.815079e+01
    endloop
  endfacet
  facet normal  0.000000e+00  1.000000e+00 -0.000000e+00
    outer loop
      vertex   1.219320e+02  6.070600e+01  6.667229e+01
      vertex   1.169117e+02  6.070600e+01  7.086036e+01
      vertex   1.600456e+02  6.070600e+01  1.174621e+02
    endloop
  endfacet
  facet normal  0.000000e+00  1.000000e+00  0.000000e+00
    outer loop
      vertex   1.600456e+02  6.070600e+01  1.174621e+02
      vertex   1.169117e+02  6.070600e+01  7.086036e+01
      vertex   1.123487e+02  6.070600e+01  7.554242e+01
    endloop
  endfacet
  facet normal  0.000000e+00  1.000000e+00  0.000000e+00
    outer loop
      vertex   1.600456e+02  6.070600e+01  1.174621e+02
      vertex   1.123487e+02  6.070600e+01  7.554242e+01
      vertex   1.082913e+02  6.070600e+01  8.066884e+01
    endloop
  endfacet
  facet normal  0.000000e+00  1.000000e+00 -0.000000e+00
    outer loop
      vertex   1.391831e+02  6.070600e+01  5.748701e+01
      vertex   1.331270e+02  6.070600e+01  5.994998e+01
      vertex   1.600456e+02  6.070600e+01  1.174621e+02
    endloop
  endfacet
  facet normal  0.000000e+00  1.000000e+00  0.000000e+00
    outer loop
      vertex   1.600456e+02  6.070600e+01  1.174621e+02
      vertex   1.331270e+02  6.070600e+01  5.994998e+01
      vertex   1.273562e+02  6.070600e+01  6.302260e+01
    endloop
  endfacet
  facet normal  0.000000e+00  1.000000e+00  0.000000e+00
    outer loop
      vertex   1.600456e+02  6.070600e+01  1.174621e+02
      vertex   1.273562e+02  6.070600e+01  6.302260e+01
      vertex   1.219320e+02  6.070600e+01  6.667229e+01
    endloop
  endfacet
  facet normal  0.000000e+00  1.000000e+00 -0.000000e+00
    outer loop
      vertex   1.584106e+02  6.070600e+01  5.398313e+01
      vertex   1.518923e+02  6.070600e+01  5.448768e+01
      vertex   1.600456e+02  6.070600e+01  1.174621e+02
    endloop
  endfacet
  facet normal  0.000000e+00  1.000000e+00  0.000000e+00
    outer loop
      vertex   1.600456e+02  6.070600e+01  1.174621e+02
      vertex   1.518923e+02  6.070600e+01  5.448768e+01
      vertex   1.454604e+02  6.070600e+01  5.565979e+01
    endloop
  endfacet
  facet normal  0.000000e+00  1.000000e+00  0.000000e+00
    outer loop
      vertex   1.600456e+02  6.070600e+01  1.174621e+02
      vertex   1.454604e+02  6.070600e+01  5.565979e+01
      vertex   1.391831e+02  6.070600e+01  5.748701e+01
    endloop
  endfacet
  facet normal  0.000000e+00  1.000000e+00  0.000000e+00
    outer loop
      vertex   1.777929e+02  6.070600e+01  5.649256e+01
      vertex   1.714299e+02  6.070600e+01  5.499091e+01
      vertex   1.600456e+02  6.070600e+01  1.174621e+02
    endloop
  endfacet
  facet normal  0.000000e+00  1.000000e+00  0.000000e+00
    outer loop
      vertex   1.600456e+02  6.070600e+01  1.174621e+02
      vertex   1.714299e+02  6.070600e+01  5.499091e+01
      vertex   1.649462e+02  6.070600e+01  5.415146e+01
    endloop
  endfacet
  facet normal  0.000000e+00  1.000000e+00  0.000000e+00
    outer loop
      vertex   1.600456e+02  6.070600e+01  1.174621e+02
      vertex   1.649462e+02  6.070600e+01  5.415146e+01
      vertex   1.584106e+02  6.070600e+01  5.398313e+01
    endloop
  endfacet
  facet normal  0.000000e+00  1.000000e+00  0.000000e+00
    outer loop
      vertex   1.954940e+02  6.070600e+01  6.477759e+01
      vertex   1.898891e+02  6.070600e+01  6.141197e+01
      vertex   1.600456e+02  6.070600e+01  1.174621e+02
    endloop
  endfacet
  facet normal  0.000000e+00  1.000000e+00  0.000000e+00
    outer loop
      vertex   1.600456e+02  6.070600e+01  1.174621e+02
      vertex   1.898891e+02  6.070600e+01  6.141197e+01
      vertex   1.839678e+02  6.070600e+01  5.864051e+01
    endloop
  endfacet
  facet normal  0.000000e+00  1.000000e+00  0.000000e+00
    outer loop
      vertex   1.600456e+02  6.070600e+01  1.174621e+02
      vertex   1.839678e+02  6.070600e+01  5.864051e+01
      vertex   1.777929e+02  6.070600e+01  5.649256e+01
    endloop
  endfacet
  facet normal  0.000000e+00  1.000000e+00  0.000000e+00
    outer loop
      vertex   2.098372e+02  6.070600e+01  7.805338e+01
      vertex   2.055212e+02  6.070600e+01  7.314262e+01
      vertex   1.600456e+02  6.070600e+01  1.174621e+02
    endloop
  endfacet
  facet normal  0.000000e+00  1.000000e+00  0.000000e+00
    outer loop
      vertex   1.600456e+02  6.070600e+01  1.174621e+02
      vertex   2.055212e+02  6.070600e+01  7.314262e+01
      vertex   2.007232e+02  6.070600e+01  6.870167e+01
    endloop
  endfacet
  facet normal  0.000000e+00  1.000000e+00  0.000000e+00
    outer loop
      vertex   1.600456e+02  6.070600e+01  1.174621e+02
      vertex   2.007232e+02  6.070600e+01  6.870167e+01
      vertex   1.954940e+02  6.070600e+01  6.477759e+01
    endloop
  endfacet
  facet normal  0.000000e+00  1.000000e+00  0.000000e+00
    outer loop
      vertex   2.194636e+02  6.070600e+01  9.506232e+01
      vertex   2.168455e+02  6.070600e+01  8.907162e+01
      vertex   1.600456e+02  6.070600e+01  1.174621e+02
    endloop
  endfacet
  facet normal  0.000000e+00  1.000000e+00  0.000000e+00
    outer loop
      vertex   1.600456e+02  6.070600e+01  1.174621e+02
      vertex   2.168455e+02  6.070600e+01  8.907162e+01
      vertex   2.136253e+02  6.070600e+01  8.338187e+01
    endloop
  endfacet
  facet normal  0.000000e+00  1.000000e+00  0.000000e+00
    outer loop
      vertex   1.600456e+02  6.070600e+01  1.174621e+02
      vertex   2.136253e+02  6.070600e+01  8.338187e+01
      vertex   2.098372e+02  6.070600e+01  7.805338e+01
    endloop
  endfacet
  facet normal  0.000000e+00  1.000000e+00  0.000000e+00
    outer loop
      vertex   2.234614e+02  6.070600e+01  1.141932e+02
      vertex   2.227891e+02  6.070600e+01  1.076900e+02
      vertex   1.600456e+02  6.070600e+01  1.174621e+02
    endloop
  endfacet
  facet normal  0.000000e+00  1.000000e+00  0.000000e+00
    outer loop
      vertex   1.600456e+02  6.070600e+01  1.174621e+02
      vertex   2.227891e+02  6.070600e+01  1.076900e+02
      vertex   2.214518e+02  6.070600e+01  1.012905e+02
    endloop
  endfacet
  facet normal  0.000000e+00  1.000000e+00  0.000000e+00
    outer loop
      vertex   1.600456e+02  6.070600e+01  1.174621e+02
      vertex   2.214518e+02  6.070600e+01  1.012905e+02
      vertex   2.194636e+02  6.070600e+01  9.506232e+01
    endloop
  endfacet
endsolid vcg
